<svg xmlns="http://www.w3.org/2000/svg" viewBox="0 0 56 56"><defs><style>.cls-1,.cls-2,.cls-3,.cls-4,.cls-5,.cls-6,.cls-7,.cls-8,.cls-9{fill:none;}.cls-2,.cls-3,.cls-4,.cls-5,.cls-6,.cls-7,.cls-8,.cls-9{stroke:#fff;stroke-linejoin:round;}.cls-2,.cls-3,.cls-4,.cls-5,.cls-6,.cls-9{stroke-width:2px;}.cls-3,.cls-4,.cls-5,.cls-6,.cls-7,.cls-8,.cls-9{stroke-linecap:round;}.cls-3,.cls-8{stroke-dasharray:6 4 2 4 0;}.cls-4{stroke-dasharray:20 4 2 4 0;}.cls-5{stroke-dasharray:16 4 6 4 0;}.cls-6{stroke-dasharray:16 4 2 4 0;}</style></defs><title>i-gewinnung</title><g id="Ebene_2" data-name="Ebene 2"><g id="gewinnung"><rect class="cls-1" width="56" height="56"/><line class="cls-2" x1="28" y1="40" x2="28" y2="22"/><path class="cls-3" d="M28,33a4,4,0,0,1,8,0"/><path class="cls-4" d="M28,26a8,8,0,0,1,16,0"/><path class="cls-5" d="M28,22a9,9,0,0,0-18,0"/><path class="cls-6" d="M28,30a6,6,0,0,0-12,0"/><line class="cls-7" x1="33.5" y1="42.5" x2="22.5" y2="42.5"/><line class="cls-8" x1="19.5" y1="44.5" x2="36.5" y2="44.5"/><polyline class="cls-9" points="40 45 38 42 34 42 34 40 22 40 22 42 18 42 16 45"/></g></g></svg>