<svg xmlns="http://www.w3.org/2000/svg" viewBox="0 0 72 72"><defs><style>.cls-1{fill:#434359;}.cls-2{fill:#f61c56;}.cls-3,.cls-4{fill:none;}.cls-3{stroke:#f61c56;stroke-linecap:round;stroke-miterlimit:10;stroke-width:1px;}</style></defs><title>i-prozess03</title><g id="Ebene_2" data-name="Ebene 2"><g id="Prozess"><circle class="cls-1" cx="55" cy="5" r="1"/><circle class="cls-1" cx="19" cy="9" r="1"/><circle class="cls-2" cx="25" cy="25" r="1"/><circle class="cls-1" cx="47" cy="67" r="1"/><circle class="cls-2" cx="37" cy="37" r="1"/><circle class="cls-1" cx="69" cy="65" r="1"/><circle class="cls-1" cx="7" cy="15" r="1"/><circle class="cls-2" cx="49" cy="49" r="1"/><circle class="cls-2" cx="61" cy="37" r="1"/><circle class="cls-2" cx="49" cy="25" r="1"/><circle class="cls-2" cx="37" cy="13" r="1"/><circle class="cls-1" cx="5" cy="43" r="1"/><circle class="cls-2" cx="37" cy="61" r="1"/><circle class="cls-2" cx="13" cy="37" r="1"/><circle class="cls-2" cx="25" cy="49" r="1"/><circle class="cls-1" cx="17" cy="63" r="1"/><circle class="cls-1" cx="63" cy="25" r="1"/><circle class="cls-1" cx="65" cy="49" r="1"/><line class="cls-3" x1="37" y1="13" x2="37" y2="61"/><line class="cls-3" x1="61" y1="37" x2="13" y2="37"/><line class="cls-3" x1="49" y1="49" x2="25" y2="25"/><line class="cls-3" x1="25" y1="49" x2="49" y2="25"/><line class="cls-3" x1="61" y1="37" x2="49" y2="49"/><line class="cls-3" x1="37" y1="13" x2="49" y2="49"/><line class="cls-3" x1="49" y1="25" x2="25" y2="25"/><line class="cls-3" x1="37" y1="61" x2="13" y2="37"/><line class="cls-3" x1="49" y1="49" x2="13" y2="37"/><line class="cls-3" x1="25" y1="25" x2="13" y2="37"/><rect class="cls-4" width="72" height="72"/><circle class="cls-1" cx="51" cy="61" r="1"/><circle class="cls-1" cx="59" cy="17" r="1"/><circle class="cls-1" cx="25" cy="9" r="1"/><circle class="cls-1" cx="63" cy="57" r="1"/><circle class="cls-1" cx="47" cy="7" r="1"/><circle class="cls-1" cx="7" cy="61" r="1"/><circle class="cls-1" cx="9" cy="49" r="1"/></g></g></svg>