<svg xmlns="http://www.w3.org/2000/svg" viewBox="0 0 72 72"><defs><style>.cls-1{fill:#434359;}.cls-2{fill:#f61c56;}.cls-3,.cls-4{fill:none;}.cls-3{stroke:#f61c56;stroke-linecap:round;stroke-miterlimit:10;stroke-width:1px;}</style></defs><title>i-prozess02</title><g id="Ebene_2" data-name="Ebene 2"><g id="Prozess"><circle class="cls-1" cx="65" cy="9" r="1"/><circle class="cls-1" cx="15" cy="5" r="1"/><circle class="cls-2" cx="19" cy="29" r="1"/><circle class="cls-2" cx="35" cy="29" r="1"/><circle class="cls-2" cx="27" cy="43" r="1"/><circle class="cls-1" cx="59" cy="49" r="1"/><circle class="cls-1" cx="13" cy="17" r="1"/><circle class="cls-2" cx="31" cy="51" r="1"/><circle class="cls-2" cx="37" cy="41" r="1"/><circle class="cls-2" cx="57" cy="23" r="1"/><circle class="cls-2" cx="31" cy="13" r="1"/><circle class="cls-1" cx="5" cy="43" r="1"/><circle class="cls-1" cx="53" cy="67" r="1"/><circle class="cls-2" cx="45" cy="53" r="1"/><line class="cls-3" x1="31" y1="13" x2="57" y2="23"/><line class="cls-3" x1="31" y1="51" x2="37" y2="41"/><line class="cls-3" x1="27" y1="43" x2="37" y2="41"/><circle class="cls-1" cx="13" cy="35" r="1"/><circle class="cls-1" cx="15" cy="67" r="1"/><circle class="cls-1" cx="67" cy="33" r="1"/><circle class="cls-1" cx="59" cy="35" r="1"/><rect class="cls-4" width="72" height="72"/><circle class="cls-1" cx="53" cy="51" r="1"/><circle class="cls-1" cx="61" cy="29" r="1"/><circle class="cls-1" cx="15" cy="23" r="1"/><circle class="cls-1" cx="51" cy="45" r="1"/><circle class="cls-1" cx="59" cy="41" r="1"/><circle class="cls-1" cx="21" cy="49" r="1"/><circle class="cls-1" cx="15" cy="43" r="1"/></g></g></svg>