<svg xmlns="http://www.w3.org/2000/svg" viewBox="0 0 72 72"><defs><style>.cls-1{fill:#434359;}.cls-2{fill:none;}</style></defs><title>i-prozess01</title><g id="Ebene_2" data-name="Ebene 2"><g id="Prozess"><circle class="cls-1" cx="65" cy="9" r="1"/><circle class="cls-1" cx="9" cy="19" r="1"/><circle class="cls-1" cx="35" cy="29" r="1"/><circle class="cls-1" cx="27" cy="43" r="1"/><circle class="cls-1" cx="47" cy="45" r="1"/><circle class="cls-1" cx="27" cy="27" r="1"/><circle class="cls-1" cx="19" cy="57" r="1"/><circle class="cls-1" cx="37" cy="41" r="1"/><circle class="cls-1" cx="57" cy="23" r="1"/><circle class="cls-1" cx="31" cy="13" r="1"/><circle class="cls-1" cx="5" cy="43" r="1"/><circle class="cls-1" cx="53" cy="67" r="1"/><circle class="cls-1" cx="59" cy="53" r="1"/><circle class="cls-1" cx="15" cy="5" r="1"/><circle class="cls-1" cx="15" cy="39" r="1"/><circle class="cls-1" cx="15" cy="67" r="1"/><circle class="cls-1" cx="67" cy="33" r="1"/><circle class="cls-1" cx="53" cy="35" r="1"/><circle class="cls-1" cx="43" cy="43" r="1"/><circle class="cls-1" cx="51" cy="29" r="1"/><circle class="cls-1" cx="31" cy="27" r="1"/><circle class="cls-1" cx="51" cy="45" r="1"/><circle class="cls-1" cx="41" cy="31" r="1"/><circle class="cls-1" cx="21" cy="49" r="1"/><circle class="cls-1" cx="25" cy="37" r="1"/><rect class="cls-2" width="72" height="72"/></g></g></svg>