<svg xmlns="http://www.w3.org/2000/svg" viewBox="0 0 56 56"><defs><style>.cls-1,.cls-2,.cls-3,.cls-4{fill:none;}.cls-2,.cls-3,.cls-4{stroke:#fff;stroke-linecap:round;stroke-linejoin:round;}.cls-2{stroke-width:2px;}.cls-4{stroke-dasharray:3 2 1;}</style></defs><title>i-reinigung</title><g id="Ebene_2" data-name="Ebene 2"><g id="reinigung"><rect class="cls-1" width="56" height="56"/><polyline class="cls-2" points="16 25 16 23 24 23"/><path class="cls-2" d="M38,26V42.25A3.75,3.75,0,0,1,34.25,46H21.75A3.75,3.75,0,0,1,18,42.25V26"/><polyline class="cls-2" points="36 23 40 23 40 25"/><path class="cls-3" d="M17,22a11,11,0,0,1,22,0"/><path class="cls-3" d="M33.5,34.5h0a2,2,0,0,1-2-2V30A1.5,1.5,0,0,0,30,28.5h0A1.5,1.5,0,0,0,28.5,30v.5a2,2,0,0,1-2,2h0a2,2,0,0,1-2-2v-9h11v11A2,2,0,0,1,33.5,34.5Z"/><line class="cls-3" x1="16.5" y1="25.5" x2="24.5" y2="25.5"/><line class="cls-3" x1="35.5" y1="25.5" x2="39.5" y2="25.5"/><line class="cls-4" x1="26.5" y1="23.5" x2="26.5" y2="30.5"/><path class="cls-3" d="M22.5,43.5h-1a1,1,0,0,1-1-1v-2"/><line class="cls-3" x1="20.5" y1="38.5" x2="20.5" y2="37.5"/></g></g></svg>