<svg xmlns="http://www.w3.org/2000/svg" viewBox="0 0 56 56"><defs><style>.cls-1,.cls-2,.cls-3,.cls-4,.cls-5{fill:none;}.cls-2,.cls-3,.cls-4,.cls-5{stroke:#fff;stroke-linecap:round;stroke-linejoin:round;}.cls-2{stroke-width:2px;}.cls-4{stroke-dasharray:4 2 1 2 0;}.cls-5{stroke-dasharray:4 3 2;}</style></defs><title>i-versorgung</title><g id="Ebene_2" data-name="Ebene 2"><g id="versorgung"><rect class="cls-1" width="56" height="56"/><polyline class="cls-2" points="12 20 15 20 15 34 12 34"/><line class="cls-3" x1="26.5" y1="16.5" x2="26.5" y2="19.5"/><line class="cls-3" x1="23.5" y1="19.5" x2="23.5" y2="16.5"/><polyline class="cls-3" points="23.5 13.5 23.5 11.5 26.5 11.5 26.5 13.5"/><polyline class="cls-3" points="42.5 35.5 42.5 37.5 37.5 37.5 37.5 35.5"/><line class="cls-2" x1="31" y1="14" x2="31" y2="16"/><line class="cls-2" x1="19" y1="16" x2="19" y2="14"/><polyline class="cls-2" points="15 24 20 24 20 30 15 30"/><path class="cls-2" d="M22,22H21a1,1,0,0,0-1,1v8a1,1,0,0,0,1,1h8a1,1,0,0,0,1-1V23a1,1,0,0,0-1-1H28s0-.5,0-1a1,1,0,0,0-1-1H23a1,1,0,0,0-1,1C22,21.5,22,22,22,22Z"/><path class="cls-2" d="M30,30h2a5,5,0,0,1,5,5h6A11,11,0,0,0,32,24H30"/><line class="cls-3" x1="30.5" y1="16.5" x2="19.5" y2="16.5"/><line class="cls-3" x1="30.5" y1="13.5" x2="19.5" y2="13.5"/><line class="cls-4" x1="12.5" y1="22.5" x2="12.5" y2="31.5"/><line class="cls-5" x1="38.5" y1="37.5" x2="38.5" y2="47.5"/><line class="cls-3" x1="42.5" y1="40.5" x2="42.5" y2="37.5"/><line class="cls-3" x1="40.5" y1="43.5" x2="40.5" y2="39.5"/></g></g></svg>