<svg id="gewinnung_copy" data-name="gewinnung copy" xmlns="http://www.w3.org/2000/svg" viewBox="0 0 22.16 27.29"><defs><style>.cls-1{fill:#fff;stroke-width:0.51px;}.cls-1,.cls-2,.cls-3{stroke:#fff;stroke-linecap:round;}.cls-1,.cls-2{stroke-miterlimit:10;}.cls-2,.cls-3{fill:none;}.cls-3{stroke-linejoin:round;}</style></defs><title>icon-gewinnung-active-32</title><path class="cls-1" d="M25.24,24.89H21a0.72,0.72,0,0,1-.71-0.72v0A0.71,0.71,0,0,1,21,23.44h1.7a0.72,0.72,0,0,0,.71-0.72v0A0.72,0.72,0,0,0,22.66,22h-5v2c0,1-3.26.95-3.26,0.06,0-.14,0-1,0-2H9.84a0.72,0.72,0,0,0-.71.71v0a0.72,0.72,0,0,0,.71.72h1.08a0.72,0.72,0,0,1,.71.71v0a0.72,0.72,0,0,1-.71.72H8a0.71,0.71,0,0,0-.71.71v0.07a0.72,0.72,0,0,0,.71.71H13.6a0.72,0.72,0,0,1,.72.71v0a0.72,0.72,0,0,1-.72.71H12.84a0.72,0.72,0,0,0-.72.71h0a0.72,0.72,0,0,0,.72.71h9.24a0.72,0.72,0,0,0,.72-0.71h0a0.72,0.72,0,0,0-.72-0.71H21.32a0.71,0.71,0,0,1-.71-0.71v0a0.71,0.71,0,0,1,.71-0.71h3.92A0.72,0.72,0,0,0,26,25.67V25.6A0.72,0.72,0,0,0,25.24,24.89Z" transform="translate(-4.92 -2.23)"/><path class="cls-2" d="M5.53,15c0-1.28-.13-3.39,2.19-4.67a4.38,4.38,0,0,1,4.93.54c1.72,1.41,1.77,3.67,1.77,5.64h0V24c0,0.88,3.26.94,3.26-.06V14c0-2,0-4.23,1.77-5.64a4.38,4.38,0,0,1,4.93-.54c2.33,1.28,2.19,3.39,2.19,4.67" transform="translate(-4.92 -2.23)"/><line class="cls-2" x1="21.66" y1="11.72" x2="21.66" y2="12.27"/><line class="cls-2" x1="21.66" y1="13.79" x2="21.66" y2="13.81"/><line class="cls-2" x1="0.61" y1="14.21" x2="0.61" y2="14.76"/><line class="cls-2" x1="0.61" y1="16.15" x2="0.61" y2="16.16"/><line class="cls-2" x1="21.29" y1="4.03" x2="21.29" y2="4.03"/><path class="cls-2" d="M24.2,4.66a4.52,4.52,0,0,1,1,.61" transform="translate(-4.92 -2.23)"/><path class="cls-3" d="M16,16.7V12.85c0-8,3.47-9.79,6.83-8.8" transform="translate(-4.92 -2.23)"/><line class="cls-2" x1="0.5" y1="2.89" x2="0.5" y2="2.89"/><path class="cls-2" d="M7.36,3.67a5.45,5.45,0,0,0-.76.44" transform="translate(-4.92 -2.23)"/><path class="cls-3" d="M16,13V8.56C16,4.31,12.47,1.82,8.78,3" transform="translate(-4.92 -2.23)"/><line class="cls-2" x1="11.11" y1="15.77" x2="11.11" y2="15.77"/><line class="cls-3" x1="11.11" y1="17.12" x2="11.11" y2="21.12"/></svg>