<svg id="versorgung" xmlns="http://www.w3.org/2000/svg" viewBox="0 0 20.63 28.64"><defs><style>.cls-1,.cls-2,.cls-3,.cls-4,.cls-5,.cls-6{fill:#3873b9;}.cls-1,.cls-2,.cls-3,.cls-4,.cls-5,.cls-7{stroke:#3873b9;stroke-linecap:round;}.cls-1,.cls-2{stroke-linejoin:round;}.cls-1,.cls-4,.cls-7{stroke-width:0.86px;}.cls-3,.cls-4,.cls-5,.cls-7{stroke-miterlimit:10;}.cls-3{stroke-width:0.65px;}.cls-7{fill:none;}</style></defs><title>icon-versorgung-32</title><path class="cls-1" d="M6.12,14.08h9.82A4.21,4.21,0,0,1,19,15a3.37,3.37,0,0,1,1,2.56v2.88l4.64,0.08v-3a8.08,8.08,0,0,0-1.86-5.44,8,8,0,0,0-6.21-2.29H16a1.29,1.29,0,0,1-1.44-1.22V7.92a1.83,1.83,0,0,1-1.11.31,1.84,1.84,0,0,1-1.11-.31V8.64a1.29,1.29,0,0,1-1.45,1.22H7.19Z" transform="translate(-5.69 -2.86)"/><line class="cls-2" x1="16.59" y1="28.14" x2="16.59" y2="24.86"/><path class="cls-3" d="M21.36,17.39a4.56,4.56,0,0,0-1.31-3.27,4.76,4.76,0,0,0-3.35-1.2" transform="translate(-5.69 -2.86)"/><path class="cls-4" d="M20.64,21.32h-1a0.8,0.8,0,0,1-.8-0.8h0a0.8,0.8,0,0,1,.8-0.81h5.46a0.8,0.8,0,0,1,.8.81h0a0.8,0.8,0,0,1-.8.8H20.64Z" transform="translate(-5.69 -2.86)"/><path class="cls-3" d="M11.32,10.9a1.68,1.68,0,0,0,1.87-1.29" transform="translate(-5.69 -2.86)"/><line class="cls-5" x1="16.59" y1="23.14" x2="16.59" y2="23.14"/><line class="cls-5" x1="18.64" y1="25.92" x2="18.64" y2="25.92"/><line class="cls-2" x1="14.53" y1="25.95" x2="14.53" y2="20.25"/><line class="cls-2" x1="16.59" y1="21.44" x2="16.59" y2="20.25"/><line class="cls-2" x1="18.65" y1="20.25" x2="18.65" y2="24.36"/><line class="cls-2" x1="18.65" y1="27.43" x2="18.65" y2="27.79"/><line class="cls-2" x1="14.53" y1="27.61" x2="14.53" y2="27.72"/><path class="cls-6" d="M18.69,4a0.63,0.63,0,0,0-.82-0.64L15.7,3.9a1.62,1.62,0,0,1-1.41-.41,1.11,1.11,0,0,0-.79-0.2,1.1,1.1,0,0,0-.69.13,1.83,1.83,0,0,1-1.45.4L9.1,3.34A0.66,0.66,0,0,0,8.28,4V5.7a0.63,0.63,0,0,0,.82.64l2.21-.54a1.61,1.61,0,0,1,1.4.41,1.12,1.12,0,0,0,.8.21,1.11,1.11,0,0,0,.69-0.13,1.84,1.84,0,0,1,1.45-.4l2.22,0.47a0.66,0.66,0,0,0,.83-0.67V4Z" transform="translate(-5.69 -2.86)"/><path class="cls-7" d="M18.69,4a0.63,0.63,0,0,0-.82-0.64L15.7,3.9a1.62,1.62,0,0,1-1.41-.41,1.11,1.11,0,0,0-.79-0.2,1.1,1.1,0,0,0-.69.13,1.83,1.83,0,0,1-1.45.4L9.1,3.34A0.66,0.66,0,0,0,8.28,4V5.7a0.63,0.63,0,0,0,.82.64l2.21-.54a1.61,1.61,0,0,1,1.4.41,1.12,1.12,0,0,0,.8.21,1.11,1.11,0,0,0,.69-0.13,1.84,1.84,0,0,1,1.45-.4l2.22,0.47a0.66,0.66,0,0,0,.83-0.67V4Z" transform="translate(-5.69 -2.86)"/></svg>