<svg id="reinigung" xmlns="http://www.w3.org/2000/svg" viewBox="0 0 23.24 27.61"><defs><style>.cls-1{fill:#87786d;}</style></defs><title>icon-reinigung-32</title><path class="cls-1" d="M8.35,9.6C9.5,4.18,12.77,3.31,16,3.31s6.5,0.87,7.65,6.29h1.13c-1-5-3.85-7.4-8.78-7.4S8.22,4.58,7.22,9.6H8.35Z" transform="translate(-4.38 -2.19)"/><path class="cls-1" d="M21.66,20.4V10.06a0.73,0.73,0,0,0-.73-0.73H15.47a0.73,0.73,0,0,0-.73.73v7.29a0.73,0.73,0,0,0,1.45,0v-2a1.89,1.89,0,0,1,1.89-1.89h0.16a1.89,1.89,0,0,1,1.89,1.89v5a0.73,0.73,0,0,0,.73.73A0.75,0.75,0,0,0,21.66,20.4Z" transform="translate(-4.38 -2.19)"/><path class="cls-1" d="M22.82,14.3V20.4a1.93,1.93,0,0,1-3.85,0v-5a0.73,0.73,0,0,0-.73-0.73H18.09a0.73,0.73,0,0,0-.73.73v2a1.89,1.89,0,0,1-3.78,0V14.3H6.8V25.84a4,4,0,0,0,4,4H21.24a4,4,0,0,0,4-4V14.3H22.82Z" transform="translate(-4.38 -2.19)"/><path class="cls-1" d="M13.58,10.83H5.17a1.06,1.06,0,0,0-.79,1.12,1.06,1.06,0,0,0,.79,1.11h8.41V10.83Z" transform="translate(-4.38 -2.19)"/><path class="cls-1" d="M26.73,10.83H22.82v2.23h3.91a1.12,1.12,0,0,0,.89-1.11A1.14,1.14,0,0,0,26.73,10.83Z" transform="translate(-4.38 -2.19)"/></svg>