<svg xmlns="http://www.w3.org/2000/svg" viewBox="0 0 216 365"><defs><style>.cls-1,.cls-32,.cls-38{fill:#fff;}.cls-1,.cls-10,.cls-11,.cls-12,.cls-13,.cls-14,.cls-15,.cls-16,.cls-17,.cls-18,.cls-19,.cls-2,.cls-20,.cls-21,.cls-22,.cls-23,.cls-24,.cls-25,.cls-26,.cls-27,.cls-28,.cls-29,.cls-3,.cls-30,.cls-31,.cls-32,.cls-33,.cls-34,.cls-35,.cls-36,.cls-37,.cls-39,.cls-4,.cls-40,.cls-41,.cls-42,.cls-43,.cls-44,.cls-45,.cls-46,.cls-47,.cls-5,.cls-6,.cls-7,.cls-8,.cls-9{stroke:#333;stroke-linecap:round;stroke-linejoin:round;}.cls-1,.cls-2,.cls-37{stroke-width:2px;}.cls-10,.cls-11,.cls-12,.cls-13,.cls-14,.cls-15,.cls-16,.cls-17,.cls-18,.cls-19,.cls-2,.cls-20,.cls-21,.cls-22,.cls-23,.cls-24,.cls-25,.cls-26,.cls-27,.cls-28,.cls-29,.cls-3,.cls-30,.cls-31,.cls-33,.cls-34,.cls-35,.cls-36,.cls-37,.cls-39,.cls-4,.cls-40,.cls-41,.cls-42,.cls-43,.cls-44,.cls-45,.cls-46,.cls-47,.cls-5,.cls-6,.cls-7,.cls-8,.cls-9{fill:none;}.cls-3{stroke-dasharray:48 4 16 6 4;}.cls-4{stroke-dasharray:40 4 40 4 8 4;}.cls-6{stroke-dasharray:16 4 8 4;}.cls-7{stroke-dasharray:4 4 16;}.cls-8{stroke-dasharray:8 4 6;}.cls-9{stroke-dasharray:5 4;}.cls-10{stroke-dasharray:48 4 24 4 12 4;}.cls-11{stroke-dasharray:48 4 16 4;}.cls-12{stroke-dasharray:16 4 40 4 8 4;}.cls-13{stroke-dasharray:4 4 16 4 48 4;}.cls-14{stroke-dasharray:32 4 32 4;}.cls-15{stroke-dasharray:24 4 24 4 8 4;}.cls-16{stroke-dasharray:2 4 16 4 48 4;}.cls-17{stroke-dasharray:20 4 24 4 11 4;}.cls-18{stroke-dasharray:8 4 48 4 11 4;}.cls-19{stroke-dasharray:4 3;}.cls-20{stroke-dasharray:1 3 4;}.cls-21{stroke-dasharray:6 6 2 4;}.cls-22{stroke-dasharray:4 4 2 4;}.cls-23{stroke-dasharray:4 4 3;}.cls-24{stroke-dasharray:7 3;}.cls-25{stroke-dasharray:18 3 16;}.cls-26{stroke-dasharray:5 4 8 4 4;}.cls-27{stroke-dasharray:4 4 7;}.cls-28{stroke-dasharray:17 3 16;}.cls-29{stroke-dasharray:48 4 40 4 8 4;}.cls-30{stroke-dasharray:6 3 3 3;}.cls-31{stroke-dasharray:8 4 2;}.cls-33,.cls-37{stroke-dasharray:9 3 4;}.cls-34{stroke-dasharray:3 4 6 12;}.cls-35{stroke-dasharray:5 3;}.cls-36{stroke-dasharray:16 4 16 4 8 4;}.cls-39{stroke-dasharray:11 4 6 4 2;}.cls-40{stroke-dasharray:1 2 4;}.cls-41{stroke-dasharray:3 2;}.cls-42{stroke-dasharray:9 4 2 4;}.cls-43{stroke-dasharray:23 4 10 6 4;}.cls-44{stroke-dasharray:28 4 12 4;}.cls-45{stroke-dasharray:7 4 4;}.cls-46{stroke-dasharray:4 2 4;}.cls-47{stroke-dasharray:3 2 4;}</style></defs><title>potsdam-nikolai</title><g id="Ebene_2" data-name="Ebene 2"><g id="Ebene_2-2" data-name="Ebene 2"><polyline class="cls-1" points="163 364 190 364 190 361 191 361 191 356 190 356 190 354 191 354 191 233 25 233 25 354 26 354 26 356 25 356 25 361 26 361 26 364 53 364"/><polygon class="cls-2" points="108 271 50 289 166 289 108 271"/><polyline class="cls-3" points="67.5 286.5 108 274 148.5 286.5"/><rect class="cls-2" x="55" y="289" width="106" height="10"/><polyline class="cls-4" points="96.5 260.5 151.5 260.5 151.5 249.5 64.5 249.5 64.5 260.5 67.5 260.5"/><path class="cls-2" d="M162,364"/><path class="cls-2" d="M54,364"/><polygon class="cls-2" points="154 354 162 354 161 351 161 306 162 299 154 299 155 306 155 351 154 354"/><line class="cls-5" x1="156.5" y1="351.5" x2="159.5" y2="351.5"/><line class="cls-5" x1="156.5" y1="305.5" x2="159.5" y2="305.5"/><path class="cls-5" d="M159.5,303.5s-1-2-1.5-2-1.5,2-1.5,2"/><line class="cls-6" x1="157.5" y1="348.5" x2="157.5" y2="311.5"/><polygon class="cls-2" points="134 354 142 354 141 351 141 306 142 299 134 299 135 306 135 351 134 354"/><line class="cls-5" x1="136.5" y1="351.5" x2="139.5" y2="351.5"/><line class="cls-5" x1="136.5" y1="305.5" x2="139.5" y2="305.5"/><path class="cls-5" d="M139.5,303.5s-1-2-1.5-2-1.5,2-1.5,2"/><line class="cls-7" x1="137.5" y1="348.5" x2="137.5" y2="317.5"/><polygon class="cls-2" points="114 354 122 354 121 351 121 306 122 299 114 299 115 306 115 351 114 354"/><line class="cls-5" x1="116.5" y1="351.5" x2="119.5" y2="351.5"/><line class="cls-5" x1="116.5" y1="305.5" x2="119.5" y2="305.5"/><path class="cls-5" d="M119.5,303.5s-1-2-1.5-2-1.5,2-1.5,2"/><line class="cls-8" x1="117.5" y1="348.5" x2="117.5" y2="323.5"/><polygon class="cls-2" points="94 354 102 354 101 351 101 306 102 299 94 299 95 306 95 351 94 354"/><line class="cls-5" x1="96.5" y1="351.5" x2="99.5" y2="351.5"/><line class="cls-5" x1="96.5" y1="305.5" x2="99.5" y2="305.5"/><path class="cls-5" d="M99.5,303.5s-1-2-1.5-2-1.5,2-1.5,2"/><line class="cls-5" x1="97.5" y1="348.5" x2="97.5" y2="329.5"/><polygon class="cls-2" points="74 354 82 354 81 351 81 306 82 299 74 299 75 306 75 351 74 354"/><line class="cls-5" x1="76.5" y1="351.5" x2="79.5" y2="351.5"/><line class="cls-5" x1="76.5" y1="305.5" x2="79.5" y2="305.5"/><path class="cls-5" d="M79.5,303.5s-1-2-1.5-2-1.5,2-1.5,2"/><line class="cls-9" x1="77.5" y1="348.5" x2="77.5" y2="336.5"/><polygon class="cls-2" points="54 354 62 354 61 351 61 306 62 299 54 299 55 306 55 351 54 354"/><line class="cls-5" x1="56.5" y1="351.5" x2="59.5" y2="351.5"/><line class="cls-5" x1="56.5" y1="305.5" x2="59.5" y2="305.5"/><path class="cls-5" d="M59.5,303.5s-1-2-1.5-2-1.5,2-1.5,2"/><line class="cls-5" x1="57.5" y1="348.5" x2="57.5" y2="345.5"/><line class="cls-7" x1="185.5" y1="289.5" x2="185.5" y2="290.5"/><line class="cls-7" x1="181.5" y1="289.5" x2="181.5" y2="290.5"/><line class="cls-7" x1="177.5" y1="289.5" x2="177.5" y2="290.5"/><line class="cls-7" x1="173.5" y1="289.5" x2="173.5" y2="290.5"/><line class="cls-7" x1="169.5" y1="289.5" x2="169.5" y2="290.5"/><line class="cls-7" x1="165.5" y1="289.5" x2="165.5" y2="290.5"/><line class="cls-7" x1="155.5" y1="289.5" x2="155.5" y2="290.5"/><line class="cls-7" x1="151.5" y1="289.5" x2="151.5" y2="290.5"/><line class="cls-7" x1="147.5" y1="289.5" x2="147.5" y2="290.5"/><line class="cls-7" x1="143.5" y1="289.5" x2="143.5" y2="290.5"/><line class="cls-7" x1="139.5" y1="289.5" x2="139.5" y2="290.5"/><line class="cls-7" x1="135.5" y1="289.5" x2="135.5" y2="290.5"/><line class="cls-7" x1="131.5" y1="289.5" x2="131.5" y2="290.5"/><line class="cls-7" x1="127.5" y1="289.5" x2="127.5" y2="290.5"/><line class="cls-7" x1="123.5" y1="289.5" x2="123.5" y2="290.5"/><line class="cls-7" x1="119.5" y1="289.5" x2="119.5" y2="290.5"/><line class="cls-7" x1="115.5" y1="289.5" x2="115.5" y2="290.5"/><line class="cls-7" x1="111.5" y1="289.5" x2="111.5" y2="290.5"/><line class="cls-7" x1="107.5" y1="289.5" x2="107.5" y2="290.5"/><line class="cls-7" x1="103.5" y1="289.5" x2="103.5" y2="290.5"/><line class="cls-7" x1="99.5" y1="289.5" x2="99.5" y2="290.5"/><line class="cls-7" x1="95.5" y1="289.5" x2="95.5" y2="290.5"/><line class="cls-7" x1="91.5" y1="289.5" x2="91.5" y2="290.5"/><line class="cls-7" x1="87.5" y1="289.5" x2="87.5" y2="290.5"/><line class="cls-7" x1="83.5" y1="289.5" x2="83.5" y2="290.5"/><line class="cls-7" x1="79.5" y1="289.5" x2="79.5" y2="290.5"/><line class="cls-7" x1="75.5" y1="289.5" x2="75.5" y2="290.5"/><line class="cls-7" x1="71.5" y1="289.5" x2="71.5" y2="290.5"/><line class="cls-7" x1="67.5" y1="289.5" x2="67.5" y2="290.5"/><line class="cls-7" x1="63.5" y1="289.5" x2="63.5" y2="290.5"/><line class="cls-7" x1="59.5" y1="289.5" x2="59.5" y2="290.5"/><line class="cls-10" x1="58.5" y1="295.5" x2="157.5" y2="295.5"/><polygon class="cls-2" points="163 364 153 364 153 361 154 361 154 356 153 356 153 354 163 354 163 356 162 356 162 361 163 361 163 364"/><line class="cls-5" x1="154.5" y1="356.5" x2="161.5" y2="356.5"/><line class="cls-5" x1="154.5" y1="360.5" x2="161.5" y2="360.5"/><polygon class="cls-2" points="63 364 53 364 53 361 54 361 54 356 53 356 53 354 63 354 63 356 62 356 62 361 63 361 63 364"/><line class="cls-5" x1="54.5" y1="356.5" x2="61.5" y2="356.5"/><line class="cls-5" x1="54.5" y1="360.5" x2="61.5" y2="360.5"/><line class="cls-11" x1="62.5" y1="354.5" x2="153.5" y2="354.5"/><line class="cls-12" x1="62.5" y1="356.5" x2="153.5" y2="356.5"/><line class="cls-13" x1="62.5" y1="358.5" x2="153.5" y2="358.5"/><line class="cls-14" x1="62.5" y1="360.5" x2="153.5" y2="360.5"/><line class="cls-11" x1="63.5" y1="362.5" x2="152.5" y2="362.5"/><line class="cls-15" x1="62.5" y1="364.5" x2="153.5" y2="364.5"/><line class="cls-16" x1="55.5" y1="222.5" x2="160.5" y2="222.5"/><line class="cls-14" x1="51.5" y1="224.5" x2="164.5" y2="224.5"/><line class="cls-11" x1="47.5" y1="226.5" x2="168.5" y2="226.5"/><line class="cls-17" x1="43.5" y1="228.5" x2="172.5" y2="228.5"/><line class="cls-18" x1="39.5" y1="230.5" x2="176.5" y2="230.5"/><rect class="cls-5" x="142.5" y="330.5" width="11" height="24"/><line class="cls-19" x1="143.5" y1="327.5" x2="152.5" y2="327.5"/><line class="cls-5" x1="147.5" y1="330.5" x2="147.5" y2="354.5"/><line class="cls-5" x1="153.5" y1="339.5" x2="142.5" y2="339.5"/><line class="cls-2" x1="141" y1="325" x2="155" y2="325"/><rect class="cls-5" x="62.5" y="330.5" width="11" height="24"/><line class="cls-20" x1="63.5" y1="327.5" x2="72.5" y2="327.5"/><line class="cls-5" x1="68.5" y1="330.5" x2="68.5" y2="354.5"/><line class="cls-5" x1="73.5" y1="339.5" x2="62.5" y2="339.5"/><line class="cls-2" x1="61" y1="325" x2="75" y2="325"/><line class="cls-5" x1="89.5" y1="324.5" x2="94.5" y2="324.5"/><line class="cls-21" x1="81.5" y1="313.5" x2="94.5" y2="313.5"/><line class="cls-22" x1="61.5" y1="313.5" x2="74.5" y2="313.5"/><line class="cls-23" x1="123.5" y1="324.5" x2="134.5" y2="324.5"/><line class="cls-24" x1="83.5" y1="337.5" x2="94.5" y2="337.5"/><path class="cls-5" d="M134.5,324.5"/><path class="cls-5" d="M121.5,324.5"/><line class="cls-5" x1="124.5" y1="313.5" x2="130.5" y2="313.5"/><line class="cls-5" x1="147.5" y1="313.5" x2="154.5" y2="313.5"/><line class="cls-5" x1="121.5" y1="337.5" x2="126.5" y2="337.5"/><line class="cls-25" x1="160.5" y1="289.5" x2="190.5" y2="289.5"/><line class="cls-26" x1="165.5" y1="287.5" x2="190.5" y2="287.5"/><line class="cls-7" x1="30.5" y1="289.5" x2="30.5" y2="290.5"/><line class="cls-7" x1="34.5" y1="289.5" x2="34.5" y2="290.5"/><line class="cls-7" x1="38.5" y1="289.5" x2="38.5" y2="290.5"/><line class="cls-7" x1="42.5" y1="289.5" x2="42.5" y2="290.5"/><line class="cls-7" x1="46.5" y1="289.5" x2="46.5" y2="290.5"/><line class="cls-7" x1="50.5" y1="289.5" x2="50.5" y2="290.5"/><line class="cls-27" x1="25.5" y1="287.5" x2="50.5" y2="287.5"/><line class="cls-28" x1="25.5" y1="289.5" x2="55.5" y2="289.5"/><path class="cls-5" d="M165.5,288.5v-6c-3,0-4.5,4.5-4.5,4.5"/><path class="cls-5" d="M50.5,288.5v-6c3,0,4.5,4.5,4.5,4.5"/><line class="cls-2" x1="172" y1="319" x2="180" y2="319"/><line class="cls-2" x1="180" y1="329" x2="172" y2="329"/><line class="cls-5" x1="180.5" y1="319.5" x2="180.5" y2="328.5"/><line class="cls-5" x1="171.5" y1="328.5" x2="171.5" y2="319.5"/><line class="cls-2" x1="44" y1="319" x2="36" y2="319"/><line class="cls-2" x1="36" y1="329" x2="44" y2="329"/><line class="cls-5" x1="35.5" y1="319.5" x2="35.5" y2="328.5"/><line class="cls-5" x1="44.5" y1="328.5" x2="44.5" y2="319.5"/><line class="cls-29" x1="29.5" y1="237.5" x2="186.5" y2="237.5"/><polyline class="cls-5" points="184.5 239.5 184.5 242.5 183.5 242.5"/><polyline class="cls-5" points="180.5 239.5 180.5 242.5 179.5 242.5"/><polyline class="cls-5" points="176.5 239.5 176.5 242.5 175.5 242.5"/><polyline class="cls-5" points="172.5 239.5 172.5 242.5 171.5 242.5"/><polyline class="cls-5" points="168.5 239.5 168.5 242.5 167.5 242.5"/><polyline class="cls-5" points="164.5 239.5 164.5 242.5 163.5 242.5"/><polyline class="cls-5" points="160.5 239.5 160.5 242.5 159.5 242.5"/><polyline class="cls-5" points="156.5 239.5 156.5 242.5 155.5 242.5"/><polyline class="cls-5" points="152.5 239.5 152.5 242.5 151.5 242.5"/><polyline class="cls-5" points="148.5 239.5 148.5 242.5 147.5 242.5"/><polyline class="cls-5" points="144.5 239.5 144.5 242.5 143.5 242.5"/><polyline class="cls-5" points="140.5 239.5 140.5 242.5 139.5 242.5"/><polyline class="cls-5" points="136.5 239.5 136.5 242.5 135.5 242.5"/><polyline class="cls-5" points="132.5 239.5 132.5 242.5 131.5 242.5"/><polyline class="cls-5" points="128.5 239.5 128.5 242.5 127.5 242.5"/><polyline class="cls-5" points="124.5 239.5 124.5 242.5 123.5 242.5"/><polyline class="cls-5" points="120.5 239.5 120.5 242.5 119.5 242.5"/><polyline class="cls-5" points="116.5 239.5 116.5 242.5 115.5 242.5"/><polyline class="cls-5" points="112.5 239.5 112.5 242.5 111.5 242.5"/><polyline class="cls-5" points="108.5 239.5 108.5 242.5 107.5 242.5"/><polyline class="cls-5" points="104.5 239.5 104.5 242.5 103.5 242.5"/><polyline class="cls-5" points="100.5 239.5 100.5 242.5 99.5 242.5"/><polyline class="cls-5" points="96.5 239.5 96.5 242.5 95.5 242.5"/><polyline class="cls-5" points="92.5 239.5 92.5 242.5 91.5 242.5"/><polyline class="cls-5" points="88.5 239.5 88.5 242.5 87.5 242.5"/><polyline class="cls-5" points="84.5 239.5 84.5 242.5 83.5 242.5"/><polyline class="cls-5" points="80.5 239.5 80.5 242.5 79.5 242.5"/><polyline class="cls-5" points="76.5 239.5 76.5 242.5 75.5 242.5"/><polyline class="cls-5" points="72.5 239.5 72.5 242.5 71.5 242.5"/><polyline class="cls-5" points="68.5 239.5 68.5 242.5 67.5 242.5"/><polyline class="cls-5" points="64.5 239.5 64.5 242.5 63.5 242.5"/><polyline class="cls-5" points="60.5 239.5 60.5 242.5 59.5 242.5"/><polyline class="cls-5" points="56.5 239.5 56.5 242.5 55.5 242.5"/><polyline class="cls-5" points="52.5 239.5 52.5 242.5 51.5 242.5"/><polyline class="cls-5" points="48.5 239.5 48.5 242.5 47.5 242.5"/><polyline class="cls-5" points="44.5 239.5 44.5 242.5 43.5 242.5"/><polyline class="cls-5" points="40.5 239.5 40.5 242.5 39.5 242.5"/><polyline class="cls-5" points="36.5 239.5 36.5 242.5 35.5 242.5"/><polyline class="cls-5" points="32.5 239.5 32.5 242.5 31.5 242.5"/><polygon class="cls-1" points="214 364 190 364 190 361 191 361 191 356 190 356 190 354 214 354 214 356 213 356 213 361 214 361 214 364"/><line class="cls-5" x1="191.5" y1="356.5" x2="212.5" y2="356.5"/><line class="cls-5" x1="191.5" y1="360.5" x2="212.5" y2="360.5"/><line class="cls-5" x1="28.5" y1="356.5" x2="50.5" y2="356.5"/><line class="cls-5" x1="28.5" y1="360.5" x2="50.5" y2="360.5"/><polygon class="cls-1" points="191 206 189 201 215 201 213 206 213 354 191 354 191 206"/><polygon class="cls-1" points="195 182 193 179 211 179 209 182 209 201 195 201 195 182"/><polygon class="cls-1" points="199 160 198 158 206 158 205 160 208 179 196 179 199 160"/><line class="cls-5" x1="193.5" y1="232.5" x2="210.5" y2="232.5"/><line class="cls-5" x1="193.5" y1="206.5" x2="210.5" y2="206.5"/><line class="cls-5" x1="197.5" y1="182.5" x2="206.5" y2="182.5"/><line class="cls-5" x1="201.5" y1="160.5" x2="202.5" y2="160.5"/><line class="cls-30" x1="193.5" y1="209.5" x2="210.5" y2="209.5"/><path class="cls-5" d="M198.5,227.5v-10c0-2,1-4,3.5-4s3.5,2,3.5,4v10Z"/><line class="cls-2" x1="199" y1="228" x2="205" y2="228"/><line class="cls-31" x1="199" y1="179" x2="202" y2="160"/><rect class="cls-32" x="200.5" y="154.5" width="3" height="3"/><path class="cls-32" d="M200.5,148.5s-4,0-4-11c2,5,4,6,4,6"/><polygon class="cls-32" points="202.5 141.5 201.5 141.5 199.5 145.5 200.5 148.5 199.5 154.5 204.5 154.5 203.5 148.5 203.5 145.5 202.5 141.5"/><line class="cls-5" x1="202.5" y1="250.5" x2="202.5" y2="252.5"/><line class="cls-5" x1="202.5" y1="262.5" x2="202.5" y2="264.5"/><line class="cls-5" x1="202.5" y1="277.5" x2="202.5" y2="279.5"/><line class="cls-5" x1="202.5" y1="292.5" x2="202.5" y2="294.5"/><line class="cls-5" x1="202.5" y1="309.5" x2="202.5" y2="311.5"/><line class="cls-5" x1="202.5" y1="325.5" x2="202.5" y2="327.5"/><polygon class="cls-1" points="2 364 26 364 26 361 25 361 25 356 26 356 26 354 2 354 2 356 3 356 3 361 2 361 2 364"/><line class="cls-5" x1="24.5" y1="356.5" x2="3.5" y2="356.5"/><line class="cls-5" x1="24.5" y1="360.5" x2="3.5" y2="360.5"/><line class="cls-5" x1="187.5" y1="356.5" x2="165.5" y2="356.5"/><line class="cls-5" x1="187.5" y1="360.5" x2="165.5" y2="360.5"/><polygon class="cls-1" points="25 206 27 201 1 201 3 206 3 354 25 354 25 206"/><polygon class="cls-1" points="21 182 23 179 5 179 7 182 7 201 21 201 21 182"/><polygon class="cls-1" points="17 160 18 158 10 158 11 160 8 179 20 179 17 160"/><line class="cls-5" x1="22.5" y1="232.5" x2="5.5" y2="232.5"/><line class="cls-5" x1="22.5" y1="206.5" x2="5.5" y2="206.5"/><line class="cls-5" x1="18.5" y1="182.5" x2="9.5" y2="182.5"/><line class="cls-5" x1="14.5" y1="160.5" x2="13.5" y2="160.5"/><line class="cls-33" x1="5.5" y1="209.5" x2="22.5" y2="209.5"/><path class="cls-5" d="M10.5,227.5v-10c0-2,1-4,3.5-4s3.5,2,3.5,4v10"/><line class="cls-2" x1="17" y1="228" x2="11" y2="228"/><line class="cls-34" x1="11" y1="179" x2="14" y2="160"/><rect class="cls-32" x="12.5" y="154.5" width="3" height="3" transform="translate(28 312) rotate(-180)"/><path class="cls-32" d="M15.5,148.5s4,0,4-11c-2,5-4,6-4,6"/><polygon class="cls-32" points="13.5 141.5 14.5 141.5 16.5 145.5 15.5 148.5 16.5 154.5 11.5 154.5 12.5 148.5 12.5 145.5 13.5 141.5"/><line class="cls-5" x1="13.5" y1="250.5" x2="13.5" y2="252.5"/><line class="cls-5" x1="13.5" y1="262.5" x2="13.5" y2="264.5"/><line class="cls-5" x1="13.5" y1="277.5" x2="13.5" y2="279.5"/><line class="cls-5" x1="13.5" y1="292.5" x2="13.5" y2="294.5"/><line class="cls-5" x1="13.5" y1="309.5" x2="13.5" y2="311.5"/><line class="cls-5" x1="13.5" y1="325.5" x2="13.5" y2="327.5"/><line class="cls-5" x1="114.5" y1="313.5" x2="101.5" y2="313.5"/><line class="cls-5" x1="101.5" y1="354.5" x2="113.5" y2="354.5"/><line class="cls-35" x1="103.5" y1="310.5" x2="112.5" y2="310.5"/><line class="cls-2" x1="108" y1="314" x2="108" y2="354"/><line class="cls-2" x1="114" y1="324" x2="102" y2="324"/><line class="cls-5" x1="114.5" y1="339.5" x2="101.5" y2="339.5"/><line class="cls-2" x1="101" y1="306" x2="115" y2="306"/><polygon class="cls-1" points="149 162 67 162 67 130 65 128 151 128 149 130 149 162"/><polygon class="cls-1" points="148 121 68 121 65 128 151 128 148 121"/><line class="cls-5" x1="67.5" y1="155.5" x2="148.5" y2="155.5"/><line class="cls-5" x1="67.5" y1="132.5" x2="148.5" y2="132.5"/><line class="cls-36" x1="72.5" y1="123.5" x2="143.5" y2="123.5"/><polygon class="cls-37" points="108 126 107 128 109 128 108 126"/><polygon class="cls-37" points="113 126 112 128 114 128 113 126"/><polygon class="cls-37" points="118 126 117 128 119 128 118 126"/><polygon class="cls-37" points="123 126 122 128 124 128 123 126"/><polygon class="cls-37" points="128 126 127 128 129 128 128 126"/><polygon class="cls-37" points="133 126 132 128 134 128 133 126"/><polygon class="cls-37" points="138 126 137 128 139 128 138 126"/><polygon class="cls-37" points="143 126 142 128 144 128 143 126"/><polygon class="cls-37" points="148 126 147 128 149 128 148 126"/><polygon class="cls-37" points="103 126 104 128 102 128 103 126"/><polygon class="cls-37" points="98 126 99 128 97 128 98 126"/><polygon class="cls-37" points="93 126 94 128 92 128 93 126"/><polygon class="cls-37" points="88 126 89 128 87 128 88 126"/><polygon class="cls-37" points="83 126 84 128 82 128 83 126"/><polygon class="cls-37" points="78 126 79 128 77 128 78 126"/><polygon class="cls-37" points="73 126 74 128 72 128 73 126"/><polygon class="cls-37" points="68 126 69 128 67 128 68 126"/><line class="cls-2" x1="106" y1="133" x2="106" y2="155"/><line class="cls-2" x1="110" y1="133" x2="110" y2="155"/><line class="cls-2" x1="120" y1="133" x2="120" y2="155"/><line class="cls-2" x1="124" y1="133" x2="124" y2="155"/><line class="cls-2" x1="134" y1="133" x2="134" y2="155"/><line class="cls-2" x1="138" y1="133" x2="138" y2="155"/><line class="cls-2" x1="148" y1="133" x2="148" y2="155"/><line class="cls-5" x1="107.5" y1="134.5" x2="108.5" y2="134.5"/><line class="cls-5" x1="121.5" y1="134.5" x2="122.5" y2="134.5"/><line class="cls-5" x1="135.5" y1="134.5" x2="136.5" y2="134.5"/><line class="cls-2" x1="68" y1="133" x2="68" y2="155"/><line class="cls-2" x1="78" y1="133" x2="78" y2="155"/><line class="cls-2" x1="82" y1="133" x2="82" y2="155"/><line class="cls-2" x1="92" y1="133" x2="92" y2="155"/><line class="cls-2" x1="96" y1="133" x2="96" y2="155"/><line class="cls-5" x1="79.5" y1="134.5" x2="80.5" y2="134.5"/><line class="cls-5" x1="93.5" y1="134.5" x2="94.5" y2="134.5"/><rect class="cls-5" x="112.5" y="137.5" width="5" height="8"/><rect class="cls-5" x="98.5" y="137.5" width="5" height="8"/><rect class="cls-5" x="84.5" y="137.5" width="5" height="8"/><rect class="cls-5" x="70.5" y="137.5" width="5" height="8"/><rect class="cls-5" x="126.5" y="137.5" width="5" height="8"/><rect class="cls-5" x="140.5" y="137.5" width="5" height="8"/><rect class="cls-38" x="67" y="173" width="82" height="49"/><polyline class="cls-1" points="55 173 55 165 53 162 163 162 161 165 161 173"/><line class="cls-7" x1="155.5" y1="162.5" x2="155.5" y2="164.5"/><line class="cls-7" x1="151.5" y1="162.5" x2="151.5" y2="164.5"/><line class="cls-7" x1="147.5" y1="162.5" x2="147.5" y2="164.5"/><line class="cls-7" x1="143.5" y1="162.5" x2="143.5" y2="164.5"/><line class="cls-7" x1="139.5" y1="162.5" x2="139.5" y2="164.5"/><line class="cls-7" x1="135.5" y1="162.5" x2="135.5" y2="164.5"/><line class="cls-7" x1="131.5" y1="162.5" x2="131.5" y2="164.5"/><line class="cls-7" x1="127.5" y1="162.5" x2="127.5" y2="164.5"/><line class="cls-7" x1="123.5" y1="162.5" x2="123.5" y2="164.5"/><line class="cls-7" x1="119.5" y1="162.5" x2="119.5" y2="164.5"/><line class="cls-7" x1="115.5" y1="162.5" x2="115.5" y2="164.5"/><line class="cls-7" x1="111.5" y1="162.5" x2="111.5" y2="164.5"/><line class="cls-7" x1="107.5" y1="162.5" x2="107.5" y2="164.5"/><line class="cls-7" x1="103.5" y1="162.5" x2="103.5" y2="164.5"/><line class="cls-7" x1="99.5" y1="162.5" x2="99.5" y2="164.5"/><line class="cls-7" x1="95.5" y1="162.5" x2="95.5" y2="164.5"/><line class="cls-7" x1="91.5" y1="162.5" x2="91.5" y2="164.5"/><line class="cls-7" x1="87.5" y1="162.5" x2="87.5" y2="164.5"/><line class="cls-7" x1="83.5" y1="162.5" x2="83.5" y2="164.5"/><line class="cls-7" x1="79.5" y1="162.5" x2="79.5" y2="164.5"/><line class="cls-7" x1="75.5" y1="162.5" x2="75.5" y2="164.5"/><line class="cls-7" x1="71.5" y1="162.5" x2="71.5" y2="164.5"/><line class="cls-7" x1="67.5" y1="162.5" x2="67.5" y2="164.5"/><line class="cls-7" x1="63.5" y1="162.5" x2="63.5" y2="164.5"/><line class="cls-7" x1="59.5" y1="162.5" x2="59.5" y2="164.5"/><polyline class="cls-1" points="114 173 115 180 115 219 114 222 122 222 121 219 121 180 122 173"/><line class="cls-5" x1="116.5" y1="219.5" x2="119.5" y2="219.5"/><line class="cls-5" x1="116.5" y1="179.5" x2="119.5" y2="179.5"/><path class="cls-5" d="M119.5,177.5s-1-2-1.5-2-1.5,2-1.5,2"/><line class="cls-39" x1="117.5" y1="216.5" x2="117.5" y2="183.5"/><polyline class="cls-1" points="94 173 95 180 95 219 94 222 102 222 101 219 101 180 102 173"/><line class="cls-5" x1="96.5" y1="219.5" x2="99.5" y2="219.5"/><line class="cls-5" x1="96.5" y1="179.5" x2="99.5" y2="179.5"/><path class="cls-5" d="M99.5,177.5s-1-2-1.5-2-1.5,2-1.5,2"/><line class="cls-7" x1="97.5" y1="216.5" x2="97.5" y2="189.5"/><rect class="cls-5" x="103.5" y="202.5" width="9" height="20"/><line class="cls-19" x1="103.5" y1="199.5" x2="112.5" y2="199.5"/><line class="cls-2" x1="101" y1="197" x2="115" y2="197"/><rect class="cls-5" x="68.5" y="202.5" width="5" height="20"/><line class="cls-40" x1="68.5" y1="199.5" x2="73.5" y2="199.5"/><line class="cls-2" x1="68" y1="197" x2="76" y2="197"/><rect class="cls-5" x="142.5" y="202.5" width="5" height="20" transform="translate(290 425) rotate(-180)"/><line class="cls-41" x1="147.5" y1="199.5" x2="142.5" y2="199.5"/><line class="cls-2" x1="148" y1="197" x2="140" y2="197"/><polyline class="cls-1" points="154 173 155 180 155 219 154 222 161 222 160 219 160 180 161 173"/><line class="cls-5" x1="156.5" y1="219.5" x2="158.5" y2="219.5"/><line class="cls-5" x1="156.5" y1="179.5" x2="158.5" y2="179.5"/><path class="cls-5" d="M159.5,177.5s-1-2-1.5-2-1.5,2-1.5,2"/><line class="cls-6" x1="157.5" y1="216.5" x2="157.5" y2="183.5"/><polyline class="cls-1" points="133 173 134 180 134 219 133 222 141 222 140 219 140 180 141 173"/><line class="cls-5" x1="135.5" y1="219.5" x2="138.5" y2="219.5"/><line class="cls-5" x1="135.5" y1="179.5" x2="138.5" y2="179.5"/><path class="cls-5" d="M138.5,177.5s-1-2-1.5-2-1.5,2-1.5,2"/><line class="cls-42" x1="136.5" y1="216.5" x2="136.5" y2="188.5"/><line class="cls-5" x1="55.5" y1="172.5" x2="160.5" y2="172.5"/><line class="cls-43" x1="107.5" y1="168.5" x2="156.5" y2="168.5"/><line class="cls-44" x1="107.5" y1="168.5" x2="58.5" y2="168.5"/><polyline class="cls-1" points="75 173 76 180 76 219 75 222 83 222 82 219 82 180 83 173"/><line class="cls-5" x1="77.5" y1="219.5" x2="80.5" y2="219.5"/><line class="cls-5" x1="77.5" y1="179.5" x2="80.5" y2="179.5"/><path class="cls-5" d="M80.5,177.5s-1-2-1.5-2-1.5,2-1.5,2"/><line class="cls-45" x1="78.5" y1="216.5" x2="78.5" y2="203.5"/><polyline class="cls-1" points="55 173 56 180 56 219 55 222 62 222 61 219 61 180 62 173"/><line class="cls-5" x1="57.5" y1="219.5" x2="59.5" y2="219.5"/><line class="cls-5" x1="57.5" y1="179.5" x2="59.5" y2="179.5"/><path class="cls-5" d="M59.5,177.5s-1-2-1.5-2-1.5,2-1.5,2"/><line class="cls-5" x1="58.5" y1="216.5" x2="58.5" y2="211.5"/><line class="cls-2" x1="67" y1="173" x2="67" y2="222"/><line class="cls-2" x1="149" y1="173" x2="149" y2="222"/><line class="cls-5" x1="101.5" y1="191.5" x2="114.5" y2="191.5"/><line class="cls-5" x1="140.5" y1="191.5" x2="148.5" y2="191.5"/><line class="cls-5" x1="67.5" y1="191.5" x2="75.5" y2="191.5"/><polygon class="cls-37" points="108 159 107 161 109 161 108 159"/><polygon class="cls-37" points="113 159 112 161 114 161 113 159"/><polygon class="cls-37" points="118 159 117 161 119 161 118 159"/><polygon class="cls-37" points="123 159 122 161 124 161 123 159"/><polygon class="cls-37" points="128 159 127 161 129 161 128 159"/><polygon class="cls-37" points="133 159 132 161 134 161 133 159"/><polygon class="cls-37" points="138 159 137 161 139 161 138 159"/><polygon class="cls-37" points="143 159 142 161 144 161 143 159"/><polygon class="cls-37" points="148 159 147 161 149 161 148 159"/><polygon class="cls-37" points="153 159 152 161 154 161 153 159"/><polygon class="cls-37" points="158 159 157 161 159 161 158 159"/><polygon class="cls-37" points="163 159 162 161 163 161 163 159"/><polygon class="cls-37" points="103 159 104 161 102 161 103 159"/><polygon class="cls-37" points="98 159 99 161 97 161 98 159"/><polygon class="cls-37" points="93 159 94 161 92 161 93 159"/><polygon class="cls-37" points="88 159 89 161 87 161 88 159"/><polygon class="cls-37" points="83 159 84 161 82 161 83 159"/><polygon class="cls-37" points="78 159 79 161 77 161 78 159"/><polygon class="cls-37" points="73 159 74 161 72 161 73 159"/><polygon class="cls-37" points="68 159 69 161 67 161 68 159"/><polygon class="cls-37" points="63 159 64 161 62 161 63 159"/><polygon class="cls-37" points="58 159 59 161 57 161 58 159"/><polygon class="cls-37" points="53 159 54 161 53 161 53 159"/><path class="cls-1" d="M108,60c-20,0-40,26-40,61h80C148,86,128,60,108,60Z"/><path class="cls-5" d="M108,60c20,0,40,26,40,61H108.5"/><path class="cls-5" d="M108,60c14.29,0,28.57,26,28.57,61H108.5"/><path class="cls-5" d="M108,60c8.57,0,17.14,26,17.14,61H108.5"/><path class="cls-5" d="M108,60c2.86,0,5.71,26,5.71,61H108.5"/><path class="cls-5" d="M108,60c-2.86,0-5.71,26-5.71,61h6.21"/><path class="cls-5" d="M108,60c-8.57,0-17.14,26-17.14,61H108.5"/><path class="cls-5" d="M108,60c-14.29,0-28.57,26-28.57,61H108.5"/><path class="cls-5" d="M108,60c-20,0-40,26-40,61h40.5"/><circle class="cls-5" cx="108" cy="112" r="2"/><circle class="cls-5" cx="108" cy="90" r="1.5"/><circle class="cls-5" cx="118" cy="90" r="1.5"/><circle class="cls-5" cx="128" cy="90" r="1.5"/><circle class="cls-5" cx="137" cy="90" r="1.5"/><circle class="cls-5" cx="98" cy="90" r="1.5"/><circle class="cls-5" cx="88" cy="90" r="1.5"/><circle class="cls-5" cx="79" cy="90" r="1.5"/><circle class="cls-5" cx="108" cy="71" r="1"/><circle class="cls-5" cx="114.5" cy="71" r="1"/><circle class="cls-5" cx="120.5" cy="71" r="1"/><circle class="cls-5" cx="126.5" cy="71" r="1"/><circle class="cls-5" cx="101.5" cy="71" r="1"/><circle class="cls-5" cx="95.5" cy="71" r="1"/><circle class="cls-5" cx="89.5" cy="71" r="1"/><circle class="cls-5" cx="120" cy="112" r="2"/><circle class="cls-5" cx="131" cy="112" r="2"/><circle class="cls-5" cx="142" cy="112" r="2"/><circle class="cls-5" cx="96" cy="112" r="2"/><circle class="cls-5" cx="85" cy="112" r="2"/><circle class="cls-5" cx="74" cy="112" r="2"/><polygon class="cls-1" points="101 56 99 61 108 60 117 61 115 56 115 43 101 43 101 56"/><polygon class="cls-1" points="116 38 100 38 101 43 115 43 116 38"/><polygon class="cls-1" points="114 34 102 34 103 38 113 38 114 34"/><polygon class="cls-1" points="109 16 107 16 103 34 113 34 109 16"/><line class="cls-5" x1="105.5" y1="43.5" x2="105.5" y2="55.5"/><line class="cls-5" x1="110.5" y1="43.5" x2="110.5" y2="55.5"/><line class="cls-5" x1="101.5" y1="55.5" x2="114.5" y2="55.5"/><line class="cls-46" x1="101.5" y1="57.5" x2="114.5" y2="57.5"/><line class="cls-46" x1="104.5" y1="40.5" x2="111.5" y2="40.5"/><line class="cls-47" x1="107.5" y1="26.5" x2="106" y2="34"/><line class="cls-2" x1="106" y1="16" x2="110" y2="16"/><line class="cls-2" x1="108" y1="16" x2="108" y2="1"/><circle class="cls-2" cx="108" cy="12" r="1"/><line class="cls-2" x1="105" y1="4" x2="111" y2="4"/></g></g></svg>