<svg xmlns="http://www.w3.org/2000/svg" viewBox="0 0 759 130"><defs><style>.cls-1,.cls-2,.cls-8{fill:#fff;}.cls-10,.cls-11,.cls-12,.cls-2,.cls-3,.cls-4,.cls-5,.cls-6,.cls-7,.cls-8,.cls-9{stroke:#333;stroke-linecap:round;stroke-linejoin:round;}.cls-2,.cls-3{stroke-width:2px;}.cls-10,.cls-11,.cls-12,.cls-3,.cls-4,.cls-5,.cls-6,.cls-7,.cls-9{fill:none;}.cls-5{stroke-dasharray:4 2 2;}.cls-6{stroke-dasharray:16 4 24 4 48 4;}.cls-7{stroke-dasharray:16 4 48 4 24 4;}.cls-9{stroke-dasharray:5 4 48 4 24 4;}.cls-10{stroke-dasharray:48 4 26 4 24 4;}.cls-11{stroke-dasharray:46 4 24 4 8 4;}.cls-12{stroke-dasharray:8 4 4 4 8 4;}</style></defs><title>potsdam-sans</title><g id="Ebene_2" data-name="Ebene 2"><g id="Ebene_1-2" data-name="Ebene 1"><rect class="cls-1" x="5" y="58" width="310" height="12"/><polygon class="cls-1" points="6 130 316 130 316 70 2 70 6 73 6 130"/><polyline class="cls-2" points="316 32 305 32 302 28 299 32 164 32 164 28 158 28 158 32 86 32 30.5 58 316.5 58"/><path class="cls-3" d="M223,100c0-6,4-9,8.5-9s8.5,3,8.5,9v29H223Z"/><line class="cls-4" x1="222.5" y1="129.5" x2="193.5" y2="129.5"/><path class="cls-3" d="M194,101"/><path class="cls-3" d="M223,101"/><polyline class="cls-3" points="211 129 211 101 216 101 216 129"/><polyline class="cls-3" points="200 129 200 101 205 101 205 129"/><polyline class="cls-4" points="200.5 102.5 203.5 103.5 202.5 105.5 203.5 107.5 200.5 108.5 202.5 110.5 203.5 112.5 201.5 113.5 203.5 114.5 202.5 117.5 202.5 115.5 200.5 113.5"/><polyline class="cls-4" points="212.5 102.5 214.5 104.5 212.5 105.5 214.5 107.5 212.5 108.5 214.5 109.5 214.5 111.5 212.5 112.5 214.5 114.5 213.5 116.5 212.5 114.5 211.5 113.5"/><polyline class="cls-4" points="205.5 100.5 206.5 95.5 205.5 93.5 204.5 92.5 205.5 89.5 204.5 87.5 202.5 85.5 204.5 83.5 202.5 81.5 199.5 81.5 198.5 83.5 196.5 82.5 195.5 80.5 193.5 82.5 194.5 84.5 198.5 87.5 197.5 90.5 198.5 95.5 197.5 98.5 199.5 100.5"/><polyline class="cls-4" points="210.5 100.5 209.5 96.5 211.5 93.5 210.5 90.5 210.5 88.5 212.5 84.5 212.5 82.5 215.5 81.5 217.5 83.5 217.5 86.5 220.5 84.5 221.5 87.5 220.5 90.5 219.5 94.5 218.5 95.5 218.5 98.5 216.5 100.5"/><line class="cls-4" x1="314.5" y1="129.5" x2="287.5" y2="129.5"/><polyline class="cls-3" points="305 129 305 101 310 101 310 129"/><polyline class="cls-3" points="294 129 294 101 299 101 299 129"/><polyline class="cls-4" points="294.5 102.5 297.5 103.5 296.5 105.5 297.5 107.5 294.5 108.5 296.5 110.5 297.5 112.5 295.5 113.5 297.5 114.5 296.5 117.5 296.5 115.5 294.5 113.5"/><polyline class="cls-4" points="306.5 102.5 308.5 104.5 306.5 105.5 308.5 107.5 306.5 108.5 308.5 109.5 308.5 111.5 306.5 112.5 308.5 114.5 307.5 116.5 306.5 114.5 305.5 113.5"/><polyline class="cls-4" points="298.5 100.5 299.5 95.5 299.5 93.5 298.5 92.5 298.5 89.5 297.5 88.5 296.5 86.5 297.5 85.5 296.5 82.5 293.5 82.5 291.5 86.5 289.5 85.5 289.5 86.5 289.5 88.5 292.5 89.5 291.5 93.5 292.5 95.5 292.5 98.5 293.5 100.5"/><polyline class="cls-4" points="304.5 100.5 303.5 96.5 305.5 93.5 304.5 90.5 304.5 88.5 307.5 86.5 307.5 84.5 309.5 83.5 312.5 85.5 312.5 87.5"/><path class="cls-3" d="M270,100c0-6,4-9,8.5-9s8.5,3,8.5,9v29H270Z"/><line class="cls-4" x1="269.5" y1="129.5" x2="240.5" y2="129.5"/><polyline class="cls-3" points="252 129 252 101 247 101 247 129"/><polyline class="cls-3" points="263 129 263 101 258 101 258 129"/><polyline class="cls-4" points="262.5 102.5 259.5 103.5 260.5 105.5 259.5 107.5 262.5 108.5 260.5 110.5 259.5 112.5 261.5 113.5 259.5 114.5 260.5 117.5 260.5 115.5 262.5 113.5"/><polyline class="cls-4" points="250.5 102.5 248.5 104.5 250.5 105.5 248.5 107.5 250.5 108.5 248.5 109.5 248.5 111.5 250.5 112.5 248.5 114.5 249.5 116.5 250.5 114.5 251.5 113.5"/><polyline class="cls-4" points="257.5 100.5 256.5 95.5 257.5 93.5 258.5 92.5 257.5 89.5 258.5 87.5 260.5 85.5 258.5 83.5 260.5 81.5 263.5 81.5 264.5 83.5 266.5 82.5 267.5 80.5 269.5 82.5 268.5 84.5 264.5 87.5 265.5 90.5 264.5 95.5 265.5 98.5 263.5 100.5"/><polyline class="cls-4" points="252.5 100.5 253.5 96.5 251.5 93.5 252.5 90.5 252.5 88.5 250.5 84.5 250.5 82.5 247.5 81.5 245.5 83.5 245.5 86.5 242.5 84.5 241.5 87.5 242.5 90.5 243.5 94.5 244.5 95.5 244.5 98.5 246.5 100.5"/><path class="cls-3" d="M129,100c0-6,4-9,8.5-9s8.5,3,8.5,9v29H129Z"/><line class="cls-4" x1="128.5" y1="129.5" x2="99.5" y2="129.5"/><path class="cls-3" d="M100,101"/><path class="cls-3" d="M129,101"/><polyline class="cls-3" points="117 129 117 101 122 101 122 129"/><polyline class="cls-3" points="106 129 106 101 111 101 111 129"/><line class="cls-5" x1="263.5" y1="58.5" x2="263.5" y2="64.5"/><line class="cls-5" x1="277.5" y1="58.5" x2="277.5" y2="64.5"/><line class="cls-5" x1="275.5" y1="58.5" x2="275.5" y2="64.5"/><line class="cls-5" x1="273.5" y1="58.5" x2="273.5" y2="64.5"/><line class="cls-5" x1="271.5" y1="58.5" x2="271.5" y2="64.5"/><line class="cls-5" x1="269.5" y1="58.5" x2="269.5" y2="64.5"/><line class="cls-5" x1="267.5" y1="58.5" x2="267.5" y2="64.5"/><line class="cls-5" x1="265.5" y1="58.5" x2="265.5" y2="64.5"/><line class="cls-5" x1="291.5" y1="58.5" x2="291.5" y2="64.5"/><line class="cls-5" x1="289.5" y1="58.5" x2="289.5" y2="64.5"/><line class="cls-5" x1="287.5" y1="58.5" x2="287.5" y2="64.5"/><line class="cls-5" x1="285.5" y1="58.5" x2="285.5" y2="64.5"/><line class="cls-5" x1="283.5" y1="58.5" x2="283.5" y2="64.5"/><line class="cls-5" x1="281.5" y1="58.5" x2="281.5" y2="64.5"/><line class="cls-5" x1="279.5" y1="58.5" x2="279.5" y2="64.5"/><line class="cls-5" x1="293.5" y1="58.5" x2="293.5" y2="64.5"/><line class="cls-5" x1="216.5" y1="58.5" x2="216.5" y2="64.5"/><line class="cls-5" x1="230.5" y1="58.5" x2="230.5" y2="64.5"/><line class="cls-5" x1="228.5" y1="58.5" x2="228.5" y2="64.5"/><line class="cls-5" x1="226.5" y1="58.5" x2="226.5" y2="64.5"/><line class="cls-5" x1="224.5" y1="58.5" x2="224.5" y2="64.5"/><line class="cls-5" x1="222.5" y1="58.5" x2="222.5" y2="64.5"/><line class="cls-5" x1="220.5" y1="58.5" x2="220.5" y2="64.5"/><line class="cls-5" x1="218.5" y1="58.5" x2="218.5" y2="64.5"/><line class="cls-5" x1="244.5" y1="58.5" x2="244.5" y2="64.5"/><line class="cls-5" x1="242.5" y1="58.5" x2="242.5" y2="64.5"/><line class="cls-5" x1="240.5" y1="58.5" x2="240.5" y2="64.5"/><line class="cls-5" x1="238.5" y1="58.5" x2="238.5" y2="64.5"/><line class="cls-5" x1="236.5" y1="58.5" x2="236.5" y2="64.5"/><line class="cls-5" x1="234.5" y1="58.5" x2="234.5" y2="64.5"/><line class="cls-5" x1="232.5" y1="58.5" x2="232.5" y2="64.5"/><line class="cls-5" x1="246.5" y1="58.5" x2="246.5" y2="64.5"/><line class="cls-5" x1="169.5" y1="58.5" x2="169.5" y2="64.5"/><line class="cls-5" x1="183.5" y1="58.5" x2="183.5" y2="64.5"/><line class="cls-5" x1="181.5" y1="58.5" x2="181.5" y2="64.5"/><line class="cls-5" x1="179.5" y1="58.5" x2="179.5" y2="64.5"/><line class="cls-5" x1="177.5" y1="58.5" x2="177.5" y2="64.5"/><line class="cls-5" x1="175.5" y1="58.5" x2="175.5" y2="64.5"/><line class="cls-5" x1="173.5" y1="58.5" x2="173.5" y2="64.5"/><line class="cls-5" x1="171.5" y1="58.5" x2="171.5" y2="64.5"/><line class="cls-5" x1="197.5" y1="58.5" x2="197.5" y2="64.5"/><line class="cls-5" x1="195.5" y1="58.5" x2="195.5" y2="64.5"/><line class="cls-5" x1="193.5" y1="58.5" x2="193.5" y2="64.5"/><line class="cls-5" x1="191.5" y1="58.5" x2="191.5" y2="64.5"/><line class="cls-5" x1="189.5" y1="58.5" x2="189.5" y2="64.5"/><line class="cls-5" x1="187.5" y1="58.5" x2="187.5" y2="64.5"/><line class="cls-5" x1="185.5" y1="58.5" x2="185.5" y2="64.5"/><line class="cls-5" x1="199.5" y1="58.5" x2="199.5" y2="64.5"/><line class="cls-5" x1="122.5" y1="58.5" x2="122.5" y2="64.5"/><line class="cls-5" x1="136.5" y1="58.5" x2="136.5" y2="64.5"/><line class="cls-5" x1="134.5" y1="58.5" x2="134.5" y2="64.5"/><line class="cls-5" x1="132.5" y1="58.5" x2="132.5" y2="64.5"/><line class="cls-5" x1="130.5" y1="58.5" x2="130.5" y2="64.5"/><line class="cls-5" x1="128.5" y1="58.5" x2="128.5" y2="64.5"/><line class="cls-5" x1="126.5" y1="58.5" x2="126.5" y2="64.5"/><line class="cls-5" x1="124.5" y1="58.5" x2="124.5" y2="64.5"/><line class="cls-5" x1="150.5" y1="58.5" x2="150.5" y2="64.5"/><line class="cls-5" x1="148.5" y1="58.5" x2="148.5" y2="64.5"/><line class="cls-5" x1="146.5" y1="58.5" x2="146.5" y2="64.5"/><line class="cls-5" x1="144.5" y1="58.5" x2="144.5" y2="64.5"/><line class="cls-5" x1="142.5" y1="58.5" x2="142.5" y2="64.5"/><line class="cls-5" x1="140.5" y1="58.5" x2="140.5" y2="64.5"/><line class="cls-5" x1="138.5" y1="58.5" x2="138.5" y2="64.5"/><line class="cls-5" x1="152.5" y1="58.5" x2="152.5" y2="64.5"/><line class="cls-5" x1="75.5" y1="58.5" x2="75.5" y2="64.5"/><line class="cls-5" x1="89.5" y1="58.5" x2="89.5" y2="64.5"/><line class="cls-5" x1="87.5" y1="58.5" x2="87.5" y2="64.5"/><line class="cls-5" x1="85.5" y1="58.5" x2="85.5" y2="64.5"/><line class="cls-5" x1="83.5" y1="58.5" x2="83.5" y2="64.5"/><line class="cls-5" x1="81.5" y1="58.5" x2="81.5" y2="64.5"/><line class="cls-5" x1="79.5" y1="58.5" x2="79.5" y2="64.5"/><line class="cls-5" x1="77.5" y1="58.5" x2="77.5" y2="64.5"/><line class="cls-5" x1="103.5" y1="58.5" x2="103.5" y2="64.5"/><line class="cls-5" x1="101.5" y1="58.5" x2="101.5" y2="64.5"/><line class="cls-5" x1="99.5" y1="58.5" x2="99.5" y2="64.5"/><line class="cls-5" x1="97.5" y1="58.5" x2="97.5" y2="64.5"/><line class="cls-5" x1="95.5" y1="58.5" x2="95.5" y2="64.5"/><line class="cls-5" x1="93.5" y1="58.5" x2="93.5" y2="64.5"/><line class="cls-5" x1="91.5" y1="58.5" x2="91.5" y2="64.5"/><line class="cls-5" x1="105.5" y1="58.5" x2="105.5" y2="64.5"/><line class="cls-5" x1="28.5" y1="58.5" x2="28.5" y2="64.5"/><line class="cls-5" x1="42.5" y1="58.5" x2="42.5" y2="64.5"/><line class="cls-5" x1="40.5" y1="58.5" x2="40.5" y2="64.5"/><line class="cls-5" x1="38.5" y1="58.5" x2="38.5" y2="64.5"/><line class="cls-5" x1="36.5" y1="58.5" x2="36.5" y2="64.5"/><line class="cls-5" x1="34.5" y1="58.5" x2="34.5" y2="64.5"/><line class="cls-5" x1="32.5" y1="58.5" x2="32.5" y2="64.5"/><line class="cls-5" x1="30.5" y1="58.5" x2="30.5" y2="64.5"/><line class="cls-5" x1="56.5" y1="58.5" x2="56.5" y2="64.5"/><line class="cls-5" x1="54.5" y1="58.5" x2="54.5" y2="64.5"/><line class="cls-5" x1="52.5" y1="58.5" x2="52.5" y2="64.5"/><line class="cls-5" x1="50.5" y1="58.5" x2="50.5" y2="64.5"/><line class="cls-5" x1="48.5" y1="58.5" x2="48.5" y2="64.5"/><line class="cls-5" x1="46.5" y1="58.5" x2="46.5" y2="64.5"/><line class="cls-5" x1="44.5" y1="58.5" x2="44.5" y2="64.5"/><line class="cls-5" x1="58.5" y1="58.5" x2="58.5" y2="64.5"/><line class="cls-4" x1="11.5" y1="58.5" x2="11.5" y2="64.5"/><polyline class="cls-4" points="106.5 102.5 109.5 103.5 108.5 105.5 109.5 107.5 106.5 108.5 108.5 110.5 109.5 112.5 107.5 113.5 109.5 114.5 108.5 117.5 108.5 115.5 106.5 113.5"/><polyline class="cls-4" points="118.5 102.5 120.5 104.5 118.5 105.5 120.5 107.5 118.5 108.5 120.5 109.5 120.5 111.5 118.5 112.5 120.5 114.5 119.5 116.5 118.5 114.5 117.5 113.5"/><polyline class="cls-4" points="111.5 100.5 112.5 95.5 111.5 93.5 110.5 92.5 111.5 89.5 110.5 87.5 108.5 85.5 110.5 83.5 108.5 81.5 105.5 81.5 104.5 83.5 102.5 82.5 101.5 80.5 99.5 82.5 100.5 84.5 104.5 87.5 103.5 90.5 104.5 95.5 103.5 98.5 105.5 100.5"/><polyline class="cls-4" points="116.5 100.5 115.5 96.5 117.5 93.5 116.5 90.5 116.5 88.5 118.5 84.5 118.5 82.5 121.5 81.5 123.5 83.5 123.5 86.5 126.5 84.5 127.5 87.5 126.5 90.5 125.5 94.5 124.5 95.5 124.5 98.5 122.5 100.5"/><path class="cls-3" d="M176,100c0-6,4-9,8.5-9s8.5,3,8.5,9v29H176Z"/><line class="cls-4" x1="175.5" y1="129.5" x2="146.5" y2="129.5"/><polyline class="cls-3" points="158 129 158 101 153 101 153 129"/><polyline class="cls-3" points="169 129 169 101 164 101 164 129"/><polyline class="cls-4" points="168.5 102.5 165.5 103.5 166.5 105.5 165.5 107.5 168.5 108.5 166.5 110.5 165.5 112.5 167.5 113.5 165.5 114.5 166.5 117.5 166.5 115.5 168.5 113.5"/><polyline class="cls-4" points="156.5 102.5 154.5 104.5 156.5 105.5 154.5 107.5 156.5 108.5 154.5 109.5 154.5 111.5 156.5 112.5 154.5 114.5 155.5 116.5 156.5 114.5 157.5 113.5"/><polyline class="cls-4" points="163.5 100.5 162.5 95.5 163.5 93.5 164.5 92.5 163.5 89.5 164.5 87.5 166.5 85.5 164.5 83.5 166.5 81.5 169.5 81.5 170.5 83.5 172.5 82.5 173.5 80.5 175.5 82.5 174.5 84.5 170.5 87.5 171.5 90.5 170.5 95.5 171.5 98.5 169.5 100.5"/><polyline class="cls-4" points="158.5 100.5 159.5 96.5 157.5 93.5 158.5 90.5 158.5 88.5 156.5 84.5 156.5 82.5 153.5 81.5 151.5 83.5 151.5 86.5 148.5 84.5 147.5 87.5 148.5 90.5 149.5 94.5 150.5 95.5 150.5 98.5 152.5 100.5"/><path class="cls-3" d="M35,100c0-6,4-9,8.5-9s8.5,3,8.5,9v29H35Z"/><line class="cls-4" x1="34.5" y1="129.5" x2="5.5" y2="129.5"/><path class="cls-3" d="M5,101"/><path class="cls-3" d="M35,101"/><polyline class="cls-3" points="23 129 23 101 28 101 28 129"/><polyline class="cls-3" points="12 129 12 101 17 101 17 129"/><polyline class="cls-4" points="12.5 102.5 15.5 103.5 14.5 105.5 15.5 107.5 12.5 108.5 14.5 110.5 15.5 112.5 13.5 113.5 15.5 114.5 14.5 117.5 14.5 115.5 12.5 113.5"/><polyline class="cls-4" points="24.5 102.5 26.5 104.5 24.5 105.5 26.5 107.5 24.5 108.5 26.5 109.5 26.5 111.5 24.5 112.5 26.5 114.5 25.5 116.5 24.5 114.5 23.5 113.5"/><polyline class="cls-4" points="17.5 100.5 18.5 95.5 17.5 93.5 16.5 92.5 17.5 89.5 16.5 87.5 14.5 85.5 16.5 83.5 14.5 81.5 11.5 81.5 10.5 83.5 8.5 82.5 7.5 80.5 5.5 82.5 6.5 84.5 10.5 87.5 9.5 90.5 10.5 95.5 9.5 98.5 11.5 100.5"/><polyline class="cls-4" points="22.5 100.5 21.5 96.5 23.5 93.5 22.5 90.5 22.5 88.5 24.5 84.5 24.5 82.5 27.5 81.5 29.5 83.5 29.5 86.5 32.5 84.5 33.5 87.5 32.5 90.5 31.5 94.5 30.5 95.5 30.5 98.5 28.5 100.5"/><path class="cls-3" d="M82,100c0-6,4-9,8.5-9s8.5,3,8.5,9v29H82Z"/><line class="cls-4" x1="81.5" y1="129.5" x2="52.5" y2="129.5"/><polyline class="cls-3" points="64 129 64 101 59 101 59 129"/><polyline class="cls-3" points="75 129 75 101 70 101 70 129"/><polyline class="cls-4" points="74.5 102.5 71.5 103.5 72.5 105.5 71.5 107.5 74.5 108.5 72.5 110.5 71.5 112.5 73.5 113.5 71.5 114.5 72.5 117.5 72.5 115.5 74.5 113.5"/><polyline class="cls-4" points="62.5 102.5 60.5 104.5 62.5 105.5 60.5 107.5 62.5 108.5 60.5 109.5 60.5 111.5 62.5 112.5 60.5 114.5 61.5 116.5 62.5 114.5 63.5 113.5"/><polyline class="cls-4" points="69.5 100.5 68.5 95.5 69.5 93.5 70.5 92.5 69.5 89.5 70.5 87.5 72.5 85.5 70.5 83.5 72.5 81.5 75.5 81.5 76.5 83.5 78.5 82.5 79.5 80.5 81.5 82.5 80.5 84.5 76.5 87.5 77.5 90.5 76.5 95.5 77.5 98.5 75.5 100.5"/><polyline class="cls-4" points="64.5 100.5 65.5 96.5 63.5 93.5 64.5 90.5 64.5 88.5 62.5 84.5 62.5 82.5 59.5 81.5 57.5 83.5 57.5 86.5 54.5 84.5 53.5 87.5 54.5 90.5 55.5 94.5 56.5 95.5 56.5 98.5 58.5 100.5"/><polyline class="cls-3" points="315 81 5 81 5 129"/><line class="cls-4" x1="278.5" y1="92.5" x2="278.5" y2="127.5"/><line class="cls-4" x1="285.5" y1="113.5" x2="271.5" y2="113.5"/><line class="cls-4" x1="285.5" y1="100.5" x2="271.5" y2="100.5"/><line class="cls-4" x1="285.5" y1="104.5" x2="283.5" y2="104.5"/><line class="cls-4" x1="285.5" y1="109.5" x2="283.5" y2="109.5"/><line class="cls-4" x1="285.5" y1="118.5" x2="283.5" y2="118.5"/><line class="cls-4" x1="285.5" y1="123.5" x2="283.5" y2="123.5"/><line class="cls-4" x1="271.5" y1="104.5" x2="273.5" y2="104.5"/><line class="cls-4" x1="271.5" y1="109.5" x2="273.5" y2="109.5"/><line class="cls-4" x1="271.5" y1="118.5" x2="273.5" y2="118.5"/><line class="cls-4" x1="271.5" y1="123.5" x2="273.5" y2="123.5"/><line class="cls-4" x1="276.5" y1="104.5" x2="280.5" y2="104.5"/><line class="cls-4" x1="276.5" y1="109.5" x2="280.5" y2="109.5"/><line class="cls-4" x1="276.5" y1="118.5" x2="280.5" y2="118.5"/><line class="cls-4" x1="276.5" y1="123.5" x2="280.5" y2="123.5"/><line class="cls-4" x1="284.5" y1="94.5" x2="282.04" y2="96.96"/><line class="cls-4" x1="272.5" y1="94.5" x2="274.96" y2="96.96"/><line class="cls-4" x1="231.5" y1="92.5" x2="231.5" y2="127.5"/><line class="cls-4" x1="238.5" y1="113.5" x2="224.5" y2="113.5"/><line class="cls-4" x1="238.5" y1="100.5" x2="224.5" y2="100.5"/><line class="cls-4" x1="238.5" y1="104.5" x2="236.5" y2="104.5"/><line class="cls-4" x1="238.5" y1="109.5" x2="236.5" y2="109.5"/><line class="cls-4" x1="238.5" y1="118.5" x2="236.5" y2="118.5"/><line class="cls-4" x1="238.5" y1="123.5" x2="236.5" y2="123.5"/><line class="cls-4" x1="224.5" y1="104.5" x2="226.5" y2="104.5"/><line class="cls-4" x1="224.5" y1="109.5" x2="226.5" y2="109.5"/><line class="cls-4" x1="224.5" y1="118.5" x2="226.5" y2="118.5"/><line class="cls-4" x1="224.5" y1="123.5" x2="226.5" y2="123.5"/><line class="cls-4" x1="229.5" y1="104.5" x2="233.5" y2="104.5"/><line class="cls-4" x1="229.5" y1="109.5" x2="233.5" y2="109.5"/><line class="cls-4" x1="229.5" y1="118.5" x2="233.5" y2="118.5"/><line class="cls-4" x1="229.5" y1="123.5" x2="233.5" y2="123.5"/><line class="cls-4" x1="237.5" y1="94.5" x2="235.04" y2="96.96"/><line class="cls-4" x1="225.5" y1="94.5" x2="227.96" y2="96.96"/><line class="cls-4" x1="184.5" y1="92.5" x2="184.5" y2="127.5"/><line class="cls-4" x1="191.5" y1="113.5" x2="177.5" y2="113.5"/><line class="cls-4" x1="191.5" y1="100.5" x2="177.5" y2="100.5"/><line class="cls-4" x1="191.5" y1="104.5" x2="189.5" y2="104.5"/><line class="cls-4" x1="191.5" y1="109.5" x2="189.5" y2="109.5"/><line class="cls-4" x1="191.5" y1="118.5" x2="189.5" y2="118.5"/><line class="cls-4" x1="191.5" y1="123.5" x2="189.5" y2="123.5"/><line class="cls-4" x1="177.5" y1="104.5" x2="179.5" y2="104.5"/><line class="cls-4" x1="177.5" y1="109.5" x2="179.5" y2="109.5"/><line class="cls-4" x1="177.5" y1="118.5" x2="179.5" y2="118.5"/><line class="cls-4" x1="177.5" y1="123.5" x2="179.5" y2="123.5"/><line class="cls-4" x1="182.5" y1="104.5" x2="186.5" y2="104.5"/><line class="cls-4" x1="182.5" y1="109.5" x2="186.5" y2="109.5"/><line class="cls-4" x1="182.5" y1="118.5" x2="186.5" y2="118.5"/><line class="cls-4" x1="182.5" y1="123.5" x2="186.5" y2="123.5"/><line class="cls-4" x1="190.5" y1="94.5" x2="188.04" y2="96.96"/><line class="cls-4" x1="178.5" y1="94.5" x2="180.96" y2="96.96"/><line class="cls-4" x1="137.5" y1="92.5" x2="137.5" y2="127.5"/><line class="cls-4" x1="144.5" y1="113.5" x2="130.5" y2="113.5"/><line class="cls-4" x1="144.5" y1="100.5" x2="130.5" y2="100.5"/><line class="cls-4" x1="144.5" y1="104.5" x2="142.5" y2="104.5"/><line class="cls-4" x1="144.5" y1="109.5" x2="142.5" y2="109.5"/><line class="cls-4" x1="144.5" y1="118.5" x2="142.5" y2="118.5"/><line class="cls-4" x1="144.5" y1="123.5" x2="142.5" y2="123.5"/><line class="cls-4" x1="130.5" y1="104.5" x2="132.5" y2="104.5"/><line class="cls-4" x1="130.5" y1="109.5" x2="132.5" y2="109.5"/><line class="cls-4" x1="130.5" y1="118.5" x2="132.5" y2="118.5"/><line class="cls-4" x1="130.5" y1="123.5" x2="132.5" y2="123.5"/><line class="cls-4" x1="135.5" y1="104.5" x2="139.5" y2="104.5"/><line class="cls-4" x1="135.5" y1="109.5" x2="139.5" y2="109.5"/><line class="cls-4" x1="135.5" y1="118.5" x2="139.5" y2="118.5"/><line class="cls-4" x1="135.5" y1="123.5" x2="139.5" y2="123.5"/><line class="cls-4" x1="143.5" y1="94.5" x2="141.04" y2="96.96"/><line class="cls-4" x1="131.5" y1="94.5" x2="133.96" y2="96.96"/><line class="cls-4" x1="90.5" y1="92.5" x2="90.5" y2="127.5"/><line class="cls-4" x1="97.5" y1="113.5" x2="83.5" y2="113.5"/><line class="cls-4" x1="97.5" y1="100.5" x2="83.5" y2="100.5"/><line class="cls-4" x1="97.5" y1="104.5" x2="95.5" y2="104.5"/><line class="cls-4" x1="97.5" y1="109.5" x2="95.5" y2="109.5"/><line class="cls-4" x1="97.5" y1="118.5" x2="95.5" y2="118.5"/><line class="cls-4" x1="97.5" y1="123.5" x2="95.5" y2="123.5"/><line class="cls-4" x1="83.5" y1="104.5" x2="85.5" y2="104.5"/><line class="cls-4" x1="83.5" y1="109.5" x2="85.5" y2="109.5"/><line class="cls-4" x1="83.5" y1="118.5" x2="85.5" y2="118.5"/><line class="cls-4" x1="83.5" y1="123.5" x2="85.5" y2="123.5"/><line class="cls-4" x1="88.5" y1="104.5" x2="92.5" y2="104.5"/><line class="cls-4" x1="88.5" y1="109.5" x2="92.5" y2="109.5"/><line class="cls-4" x1="88.5" y1="118.5" x2="92.5" y2="118.5"/><line class="cls-4" x1="88.5" y1="123.5" x2="92.5" y2="123.5"/><line class="cls-4" x1="96.5" y1="94.5" x2="94.04" y2="96.96"/><line class="cls-4" x1="84.5" y1="94.5" x2="86.96" y2="96.96"/><line class="cls-4" x1="43.5" y1="92.5" x2="43.5" y2="127.5"/><line class="cls-4" x1="50.5" y1="113.5" x2="36.5" y2="113.5"/><line class="cls-4" x1="50.5" y1="100.5" x2="36.5" y2="100.5"/><line class="cls-4" x1="50.5" y1="104.5" x2="48.5" y2="104.5"/><line class="cls-4" x1="50.5" y1="109.5" x2="48.5" y2="109.5"/><line class="cls-4" x1="50.5" y1="118.5" x2="48.5" y2="118.5"/><line class="cls-4" x1="50.5" y1="123.5" x2="48.5" y2="123.5"/><line class="cls-4" x1="36.5" y1="104.5" x2="38.5" y2="104.5"/><line class="cls-4" x1="36.5" y1="109.5" x2="38.5" y2="109.5"/><line class="cls-4" x1="36.5" y1="118.5" x2="38.5" y2="118.5"/><line class="cls-4" x1="36.5" y1="123.5" x2="38.5" y2="123.5"/><line class="cls-4" x1="41.5" y1="104.5" x2="45.5" y2="104.5"/><line class="cls-4" x1="41.5" y1="109.5" x2="45.5" y2="109.5"/><line class="cls-4" x1="41.5" y1="118.5" x2="45.5" y2="118.5"/><line class="cls-4" x1="41.5" y1="123.5" x2="45.5" y2="123.5"/><line class="cls-4" x1="49.5" y1="94.5" x2="47.04" y2="96.96"/><line class="cls-4" x1="37.5" y1="94.5" x2="39.96" y2="96.96"/><polyline class="cls-3" points="5 81 5 73 1 70 311 70"/><line class="cls-6" x1="308.5" y1="72.5" x2="8.5" y2="72.5"/><line class="cls-7" x1="312.5" y1="66.5" x2="8.5" y2="66.5"/><path class="cls-3" d="M5,70"/><line class="cls-3" x1="315" y1="58" x2="3" y2="58"/><line class="cls-3" x1="5" y1="58" x2="5" y2="70"/><ellipse class="cls-4" cx="254.5" cy="51" rx="5" ry="4.5"/><rect class="cls-4" x="253.5" y="55.5" width="2" height="1.5"/><line class="cls-3" x1="260" y1="51" x2="260" y2="50"/><line class="cls-3" x1="249" y1="51" x2="249" y2="50"/><path class="cls-4" d="M255.5,50.5a1,1,0,0,0-2,0"/><line class="cls-4" x1="249.5" y1="47.5" x2="259.5" y2="47.5"/><line class="cls-3" x1="254" y1="45" x2="255" y2="45"/><rect class="cls-4" x="300.5" y="55.5" width="2" height="1.5"/><path class="cls-4" d="M299.5,49.5l1,3-1,1a2,2,0,0,0,4,0l-1-1,1-3"/><circle class="cls-4" cx="301.5" cy="47.5" r="2"/><path class="cls-3" d="M297.5,47.5s1,2,4,0,4,0,4,0"/><line class="cls-3" x1="301" y1="44" x2="302" y2="44"/><rect class="cls-4" x="206.5" y="55.5" width="2" height="1.5"/><path class="cls-4" d="M209.5,49.5l-1,3,1,1a2,2,0,0,1-4,0l1-1-1-3"/><circle class="cls-4" cx="207.5" cy="47.5" r="2"/><path class="cls-3" d="M211.5,47.5s-1,2-4,0-4,0-4,0"/><line class="cls-3" x1="208" y1="44" x2="207" y2="44"/><rect class="cls-4" x="112.5" y="55.5" width="2" height="1.5"/><path class="cls-4" d="M111.5,49.5l1,3-1,1a2,2,0,0,0,4,0l-1-1,1-3"/><circle class="cls-4" cx="113.5" cy="47.5" r="2"/><path class="cls-3" d="M109.5,47.5s1,2,4,0,4,0,4,0"/><line class="cls-3" x1="113" y1="44" x2="114" y2="44"/><rect class="cls-8" x="18.5" y="55.5" width="2" height="1.5"/><path class="cls-8" d="M21.5,49.5l-1,3,1,1a2,2,0,0,1-4,0l1-1-1-3"/><circle class="cls-8" cx="19.5" cy="47.5" r="2"/><path class="cls-3" d="M23.5,47.5s-1,2-4,0-4,0-4,0"/><line class="cls-3" x1="20" y1="44" x2="19" y2="44"/><ellipse class="cls-4" cx="160.5" cy="51" rx="5" ry="4.5"/><rect class="cls-4" x="159.5" y="55.5" width="2" height="1.5"/><line class="cls-3" x1="166" y1="51" x2="166" y2="50"/><line class="cls-3" x1="155" y1="51" x2="155" y2="50"/><path class="cls-4" d="M161.5,50.5a1,1,0,0,0-2,0"/><line class="cls-4" x1="155.5" y1="47.5" x2="165.5" y2="47.5"/><line class="cls-3" x1="160" y1="45" x2="161" y2="45"/><ellipse class="cls-4" cx="66.5" cy="51" rx="5" ry="4.5"/><rect class="cls-4" x="65.5" y="55.5" width="2" height="1.5"/><line class="cls-3" x1="72" y1="51" x2="72" y2="50"/><line class="cls-3" x1="61" y1="51" x2="61" y2="50"/><path class="cls-4" d="M67.5,50.5a1,1,0,0,0-2,0"/><line class="cls-4" x1="61.5" y1="47.5" x2="71.5" y2="47.5"/><line class="cls-3" x1="66" y1="45" x2="67" y2="45"/><polyline class="cls-4" points="158.5 32.5 158.5 34.5 163.5 34.5 163.5 32.5"/><polyline class="cls-4" points="299.5 32.5 299.5 34.5 304.5 34.5 304.5 32.5"/><rect class="cls-1" x="444" y="58" width="310" height="12" transform="translate(1198 128) rotate(-180)"/><polygon class="cls-1" points="753 130 443 130 443 70 757 70 753 73 753 130"/><polyline class="cls-2" points="443 32 454 32 457 28 460 32 469 32 472 28 475 32 595 32 595 28 601 28 601 32 615 32 615 28 621 28 621 32 665 32 668 28 671 32 673 32 728.5 58 443 58"/><path class="cls-3" d="M536,100c0-6-4-9-8.5-9s-8.5,3-8.5,9v29h17Z"/><line class="cls-4" x1="536.5" y1="129.5" x2="565.5" y2="129.5"/><path class="cls-3" d="M565,101"/><path class="cls-3" d="M536,101"/><polyline class="cls-3" points="548 129 548 101 543 101 543 129"/><polyline class="cls-3" points="559 129 559 101 554 101 554 129"/><polyline class="cls-4" points="558.5 102.5 555.5 103.5 556.5 105.5 555.5 107.5 558.5 108.5 556.5 110.5 555.5 112.5 557.5 113.5 555.5 114.5 556.5 117.5 556.5 115.5 558.5 113.5"/><polyline class="cls-4" points="546.5 102.5 544.5 104.5 546.5 105.5 544.5 107.5 546.5 108.5 544.5 109.5 544.5 111.5 546.5 112.5 544.5 114.5 545.5 116.5 546.5 114.5 547.5 113.5"/><polyline class="cls-4" points="553.5 100.5 552.5 95.5 553.5 93.5 554.5 92.5 553.5 89.5 554.5 87.5 556.5 85.5 554.5 83.5 556.5 81.5 559.5 81.5 560.5 83.5 562.5 82.5 563.5 80.5 565.5 82.5 564.5 84.5 560.5 87.5 561.5 90.5 560.5 95.5 561.5 98.5 559.5 100.5"/><polyline class="cls-4" points="548.5 100.5 549.5 96.5 547.5 93.5 548.5 90.5 548.5 88.5 546.5 84.5 546.5 82.5 543.5 81.5 541.5 83.5 541.5 86.5 538.5 84.5 537.5 87.5 538.5 90.5 539.5 94.5 540.5 95.5 540.5 98.5 542.5 100.5"/><line class="cls-4" x1="444.5" y1="129.5" x2="471.5" y2="129.5"/><polyline class="cls-3" points="454 129 454 101 449 101 449 129"/><polyline class="cls-3" points="465 129 465 101 460 101 460 129"/><polyline class="cls-4" points="464.5 102.5 461.5 103.5 462.5 105.5 461.5 107.5 464.5 108.5 462.5 110.5 461.5 112.5 463.5 113.5 461.5 114.5 462.5 117.5 462.5 115.5 464.5 113.5"/><polyline class="cls-4" points="452.5 102.5 450.5 104.5 452.5 105.5 450.5 107.5 452.5 108.5 450.5 109.5 450.5 111.5 452.5 112.5 450.5 114.5 451.5 116.5 452.5 114.5 453.5 113.5"/><polyline class="cls-4" points="460.5 100.5 459.5 95.5 459.5 93.5 460.5 92.5 460.5 89.5 461.5 88.5 462.5 86.5 461.5 85.5 462.5 82.5 465.5 82.5 467.5 86.5 469.5 85.5 469.5 86.5 469.5 88.5 466.5 89.5 467.5 93.5 466.5 95.5 466.5 98.5 465.5 100.5"/><polyline class="cls-4" points="454.5 100.5 455.5 96.5 453.5 93.5 454.5 90.5 454.5 88.5 451.5 86.5 451.5 84.5 449.5 83.5 446.5 85.5 446.5 87.5"/><path class="cls-3" d="M489,100c0-6-4-9-8.5-9s-8.5,3-8.5,9v29h17Z"/><line class="cls-4" x1="489.5" y1="129.5" x2="518.5" y2="129.5"/><polyline class="cls-3" points="507 129 507 101 512 101 512 129"/><polyline class="cls-3" points="496 129 496 101 501 101 501 129"/><polyline class="cls-4" points="496.5 102.5 499.5 103.5 498.5 105.5 499.5 107.5 496.5 108.5 498.5 110.5 499.5 112.5 497.5 113.5 499.5 114.5 498.5 117.5 498.5 115.5 496.5 113.5"/><polyline class="cls-4" points="508.5 102.5 510.5 104.5 508.5 105.5 510.5 107.5 508.5 108.5 510.5 109.5 510.5 111.5 508.5 112.5 510.5 114.5 509.5 116.5 508.5 114.5 507.5 113.5"/><polyline class="cls-4" points="501.5 100.5 502.5 95.5 501.5 93.5 500.5 92.5 501.5 89.5 500.5 87.5 498.5 85.5 500.5 83.5 498.5 81.5 495.5 81.5 494.5 83.5 492.5 82.5 491.5 80.5 489.5 82.5 490.5 84.5 494.5 87.5 493.5 90.5 494.5 95.5 493.5 98.5 495.5 100.5"/><polyline class="cls-4" points="506.5 100.5 505.5 96.5 507.5 93.5 506.5 90.5 506.5 88.5 508.5 84.5 508.5 82.5 511.5 81.5 513.5 83.5 513.5 86.5 516.5 84.5 517.5 87.5 516.5 90.5 515.5 94.5 514.5 95.5 514.5 98.5 512.5 100.5"/><path class="cls-3" d="M630,100c0-6-4-9-8.5-9s-8.5,3-8.5,9v29h17Z"/><line class="cls-4" x1="630.5" y1="129.5" x2="659.5" y2="129.5"/><path class="cls-3" d="M659,101"/><path class="cls-3" d="M630,101"/><polyline class="cls-3" points="642 129 642 101 637 101 637 129"/><polyline class="cls-3" points="653 129 653 101 648 101 648 129"/><polyline class="cls-4" points="652.5 102.5 649.5 103.5 650.5 105.5 649.5 107.5 652.5 108.5 650.5 110.5 649.5 112.5 651.5 113.5 649.5 114.5 650.5 117.5 650.5 115.5 652.5 113.5"/><polyline class="cls-4" points="640.5 102.5 638.5 104.5 640.5 105.5 638.5 107.5 640.5 108.5 638.5 109.5 638.5 111.5 640.5 112.5 638.5 114.5 639.5 116.5 640.5 114.5 641.5 113.5"/><polyline class="cls-4" points="647.5 100.5 646.5 95.5 647.5 93.5 648.5 92.5 647.5 89.5 648.5 87.5 650.5 85.5 648.5 83.5 650.5 81.5 653.5 81.5 654.5 83.5 656.5 82.5 657.5 80.5 659.5 82.5 658.5 84.5 654.5 87.5 655.5 90.5 654.5 95.5 655.5 98.5 653.5 100.5"/><polyline class="cls-4" points="642.5 100.5 643.5 96.5 641.5 93.5 642.5 90.5 642.5 88.5 640.5 84.5 640.5 82.5 637.5 81.5 635.5 83.5 635.5 86.5 632.5 84.5 631.5 87.5 632.5 90.5 633.5 94.5 634.5 95.5 634.5 98.5 636.5 100.5"/><path class="cls-3" d="M583,100c0-6-4-9-8.5-9s-8.5,3-8.5,9v29h17Z"/><line class="cls-4" x1="583.5" y1="129.5" x2="612.5" y2="129.5"/><polyline class="cls-3" points="601 129 601 101 606 101 606 129"/><polyline class="cls-3" points="590 129 590 101 595 101 595 129"/><polyline class="cls-4" points="590.5 102.5 593.5 103.5 592.5 105.5 593.5 107.5 590.5 108.5 592.5 110.5 593.5 112.5 591.5 113.5 593.5 114.5 592.5 117.5 592.5 115.5 590.5 113.5"/><polyline class="cls-4" points="602.5 102.5 604.5 104.5 602.5 105.5 604.5 107.5 602.5 108.5 604.5 109.5 604.5 111.5 602.5 112.5 604.5 114.5 603.5 116.5 602.5 114.5 601.5 113.5"/><polyline class="cls-4" points="595.5 100.5 596.5 95.5 595.5 93.5 594.5 92.5 595.5 89.5 594.5 87.5 592.5 85.5 594.5 83.5 592.5 81.5 589.5 81.5 588.5 83.5 586.5 82.5 585.5 80.5 583.5 82.5 584.5 84.5 588.5 87.5 587.5 90.5 588.5 95.5 587.5 98.5 589.5 100.5"/><polyline class="cls-4" points="600.5 100.5 599.5 96.5 601.5 93.5 600.5 90.5 600.5 88.5 602.5 84.5 602.5 82.5 605.5 81.5 607.5 83.5 607.5 86.5 610.5 84.5 611.5 87.5 610.5 90.5 609.5 94.5 608.5 95.5 608.5 98.5 606.5 100.5"/><path class="cls-3" d="M724,100c0-6-4-9-8.5-9s-8.5,3-8.5,9v29h17Z"/><line class="cls-4" x1="724.5" y1="129.5" x2="753.5" y2="129.5"/><path class="cls-3" d="M754,101"/><path class="cls-3" d="M724,101"/><polyline class="cls-3" points="736 129 736 101 731 101 731 129"/><polyline class="cls-3" points="747 129 747 101 742 101 742 129"/><polyline class="cls-4" points="746.5 102.5 743.5 103.5 744.5 105.5 743.5 107.5 746.5 108.5 744.5 110.5 743.5 112.5 745.5 113.5 743.5 114.5 744.5 117.5 744.5 115.5 746.5 113.5"/><polyline class="cls-4" points="734.5 102.5 732.5 104.5 734.5 105.5 732.5 107.5 734.5 108.5 732.5 109.5 732.5 111.5 734.5 112.5 732.5 114.5 733.5 116.5 734.5 114.5 735.5 113.5"/><polyline class="cls-4" points="741.5 100.5 740.5 95.5 741.5 93.5 742.5 92.5 741.5 89.5 742.5 87.5 744.5 85.5 742.5 83.5 744.5 81.5 747.5 81.5 748.5 83.5 750.5 82.5 751.5 80.5 753.5 82.5 752.5 84.5 748.5 87.5 749.5 90.5 748.5 95.5 749.5 98.5 747.5 100.5"/><polyline class="cls-4" points="736.5 100.5 737.5 96.5 735.5 93.5 736.5 90.5 736.5 88.5 734.5 84.5 734.5 82.5 731.5 81.5 729.5 83.5 729.5 86.5 726.5 84.5 725.5 87.5 726.5 90.5 727.5 94.5 728.5 95.5 728.5 98.5 730.5 100.5"/><path class="cls-3" d="M677,100c0-6-4-9-8.5-9s-8.5,3-8.5,9v29h17Z"/><line class="cls-4" x1="677.5" y1="129.5" x2="706.5" y2="129.5"/><polyline class="cls-3" points="695 129 695 101 700 101 700 129"/><polyline class="cls-3" points="684 129 684 101 689 101 689 129"/><polyline class="cls-4" points="684.5 102.5 687.5 103.5 686.5 105.5 687.5 107.5 684.5 108.5 686.5 110.5 687.5 112.5 685.5 113.5 687.5 114.5 686.5 117.5 686.5 115.5 684.5 113.5"/><polyline class="cls-4" points="696.5 102.5 698.5 104.5 696.5 105.5 698.5 107.5 696.5 108.5 698.5 109.5 698.5 111.5 696.5 112.5 698.5 114.5 697.5 116.5 696.5 114.5 695.5 113.5"/><polyline class="cls-4" points="689.5 100.5 690.5 95.5 689.5 93.5 688.5 92.5 689.5 89.5 688.5 87.5 686.5 85.5 688.5 83.5 686.5 81.5 683.5 81.5 682.5 83.5 680.5 82.5 679.5 80.5 677.5 82.5 678.5 84.5 682.5 87.5 681.5 90.5 682.5 95.5 681.5 98.5 683.5 100.5"/><polyline class="cls-4" points="694.5 100.5 693.5 96.5 695.5 93.5 694.5 90.5 694.5 88.5 696.5 84.5 696.5 82.5 699.5 81.5 701.5 83.5 701.5 86.5 704.5 84.5 705.5 87.5 704.5 90.5 703.5 94.5 702.5 95.5 702.5 98.5 700.5 100.5"/><polyline class="cls-3" points="444 81 754 81 754 129"/><line class="cls-4" x1="480.5" y1="92.5" x2="480.5" y2="127.5"/><line class="cls-4" x1="473.5" y1="113.5" x2="487.5" y2="113.5"/><line class="cls-4" x1="473.5" y1="100.5" x2="487.5" y2="100.5"/><line class="cls-4" x1="473.5" y1="104.5" x2="475.5" y2="104.5"/><line class="cls-4" x1="473.5" y1="109.5" x2="475.5" y2="109.5"/><line class="cls-4" x1="473.5" y1="118.5" x2="475.5" y2="118.5"/><line class="cls-4" x1="473.5" y1="123.5" x2="475.5" y2="123.5"/><line class="cls-4" x1="487.5" y1="104.5" x2="485.5" y2="104.5"/><line class="cls-4" x1="487.5" y1="109.5" x2="485.5" y2="109.5"/><line class="cls-4" x1="487.5" y1="118.5" x2="485.5" y2="118.5"/><line class="cls-4" x1="487.5" y1="123.5" x2="485.5" y2="123.5"/><line class="cls-4" x1="482.5" y1="104.5" x2="478.5" y2="104.5"/><line class="cls-4" x1="482.5" y1="109.5" x2="478.5" y2="109.5"/><line class="cls-4" x1="482.5" y1="118.5" x2="478.5" y2="118.5"/><line class="cls-4" x1="482.5" y1="123.5" x2="478.5" y2="123.5"/><line class="cls-4" x1="474.5" y1="94.5" x2="476.96" y2="96.96"/><line class="cls-4" x1="486.5" y1="94.5" x2="484.04" y2="96.96"/><line class="cls-4" x1="527.5" y1="92.5" x2="527.5" y2="127.5"/><line class="cls-4" x1="520.5" y1="113.5" x2="534.5" y2="113.5"/><line class="cls-4" x1="520.5" y1="100.5" x2="534.5" y2="100.5"/><line class="cls-4" x1="520.5" y1="104.5" x2="522.5" y2="104.5"/><line class="cls-4" x1="520.5" y1="109.5" x2="522.5" y2="109.5"/><line class="cls-4" x1="520.5" y1="118.5" x2="522.5" y2="118.5"/><line class="cls-4" x1="520.5" y1="123.5" x2="522.5" y2="123.5"/><line class="cls-4" x1="534.5" y1="104.5" x2="532.5" y2="104.5"/><line class="cls-4" x1="534.5" y1="109.5" x2="532.5" y2="109.5"/><line class="cls-4" x1="534.5" y1="118.5" x2="532.5" y2="118.5"/><line class="cls-4" x1="534.5" y1="123.5" x2="532.5" y2="123.5"/><line class="cls-4" x1="529.5" y1="104.5" x2="525.5" y2="104.5"/><line class="cls-4" x1="529.5" y1="109.5" x2="525.5" y2="109.5"/><line class="cls-4" x1="529.5" y1="118.5" x2="525.5" y2="118.5"/><line class="cls-4" x1="529.5" y1="123.5" x2="525.5" y2="123.5"/><line class="cls-4" x1="521.5" y1="94.5" x2="523.96" y2="96.96"/><line class="cls-4" x1="533.5" y1="94.5" x2="531.04" y2="96.96"/><line class="cls-4" x1="574.5" y1="92.5" x2="574.5" y2="127.5"/><line class="cls-4" x1="567.5" y1="113.5" x2="581.5" y2="113.5"/><line class="cls-4" x1="567.5" y1="100.5" x2="581.5" y2="100.5"/><line class="cls-4" x1="567.5" y1="104.5" x2="569.5" y2="104.5"/><line class="cls-4" x1="567.5" y1="109.5" x2="569.5" y2="109.5"/><line class="cls-4" x1="567.5" y1="118.5" x2="569.5" y2="118.5"/><line class="cls-4" x1="567.5" y1="123.5" x2="569.5" y2="123.5"/><line class="cls-4" x1="581.5" y1="104.5" x2="579.5" y2="104.5"/><line class="cls-4" x1="581.5" y1="109.5" x2="579.5" y2="109.5"/><line class="cls-4" x1="581.5" y1="118.5" x2="579.5" y2="118.5"/><line class="cls-4" x1="581.5" y1="123.5" x2="579.5" y2="123.5"/><line class="cls-4" x1="576.5" y1="104.5" x2="572.5" y2="104.5"/><line class="cls-4" x1="576.5" y1="109.5" x2="572.5" y2="109.5"/><line class="cls-4" x1="576.5" y1="118.5" x2="572.5" y2="118.5"/><line class="cls-4" x1="576.5" y1="123.5" x2="572.5" y2="123.5"/><line class="cls-4" x1="568.5" y1="94.5" x2="570.96" y2="96.96"/><line class="cls-4" x1="580.5" y1="94.5" x2="578.04" y2="96.96"/><line class="cls-4" x1="621.5" y1="92.5" x2="621.5" y2="127.5"/><line class="cls-4" x1="614.5" y1="113.5" x2="628.5" y2="113.5"/><line class="cls-4" x1="614.5" y1="100.5" x2="628.5" y2="100.5"/><line class="cls-4" x1="614.5" y1="104.5" x2="616.5" y2="104.5"/><line class="cls-4" x1="614.5" y1="109.5" x2="616.5" y2="109.5"/><line class="cls-4" x1="614.5" y1="118.5" x2="616.5" y2="118.5"/><line class="cls-4" x1="614.5" y1="123.5" x2="616.5" y2="123.5"/><line class="cls-4" x1="628.5" y1="104.5" x2="626.5" y2="104.5"/><line class="cls-4" x1="628.5" y1="109.5" x2="626.5" y2="109.5"/><line class="cls-4" x1="628.5" y1="118.5" x2="626.5" y2="118.5"/><line class="cls-4" x1="628.5" y1="123.5" x2="626.5" y2="123.5"/><line class="cls-4" x1="623.5" y1="104.5" x2="619.5" y2="104.5"/><line class="cls-4" x1="623.5" y1="109.5" x2="619.5" y2="109.5"/><line class="cls-4" x1="623.5" y1="118.5" x2="619.5" y2="118.5"/><line class="cls-4" x1="623.5" y1="123.5" x2="619.5" y2="123.5"/><line class="cls-4" x1="615.5" y1="94.5" x2="617.96" y2="96.96"/><line class="cls-4" x1="627.5" y1="94.5" x2="625.04" y2="96.96"/><line class="cls-4" x1="668.5" y1="92.5" x2="668.5" y2="127.5"/><line class="cls-4" x1="661.5" y1="113.5" x2="675.5" y2="113.5"/><line class="cls-4" x1="661.5" y1="100.5" x2="675.5" y2="100.5"/><line class="cls-4" x1="661.5" y1="104.5" x2="663.5" y2="104.5"/><line class="cls-4" x1="661.5" y1="109.5" x2="663.5" y2="109.5"/><line class="cls-4" x1="661.5" y1="118.5" x2="663.5" y2="118.5"/><line class="cls-4" x1="661.5" y1="123.5" x2="663.5" y2="123.5"/><line class="cls-4" x1="675.5" y1="104.5" x2="673.5" y2="104.5"/><line class="cls-4" x1="675.5" y1="109.5" x2="673.5" y2="109.5"/><line class="cls-4" x1="675.5" y1="118.5" x2="673.5" y2="118.5"/><line class="cls-4" x1="675.5" y1="123.5" x2="673.5" y2="123.5"/><line class="cls-4" x1="670.5" y1="104.5" x2="666.5" y2="104.5"/><line class="cls-4" x1="670.5" y1="109.5" x2="666.5" y2="109.5"/><line class="cls-4" x1="670.5" y1="118.5" x2="666.5" y2="118.5"/><line class="cls-4" x1="670.5" y1="123.5" x2="666.5" y2="123.5"/><line class="cls-4" x1="662.5" y1="94.5" x2="664.96" y2="96.96"/><line class="cls-4" x1="674.5" y1="94.5" x2="672.04" y2="96.96"/><line class="cls-4" x1="715.5" y1="92.5" x2="715.5" y2="127.5"/><line class="cls-4" x1="708.5" y1="113.5" x2="722.5" y2="113.5"/><line class="cls-4" x1="708.5" y1="100.5" x2="722.5" y2="100.5"/><line class="cls-4" x1="708.5" y1="104.5" x2="710.5" y2="104.5"/><line class="cls-4" x1="708.5" y1="109.5" x2="710.5" y2="109.5"/><line class="cls-4" x1="708.5" y1="118.5" x2="710.5" y2="118.5"/><line class="cls-4" x1="708.5" y1="123.5" x2="710.5" y2="123.5"/><line class="cls-4" x1="722.5" y1="104.5" x2="720.5" y2="104.5"/><line class="cls-4" x1="722.5" y1="109.5" x2="720.5" y2="109.5"/><line class="cls-4" x1="722.5" y1="118.5" x2="720.5" y2="118.5"/><line class="cls-4" x1="722.5" y1="123.5" x2="720.5" y2="123.5"/><line class="cls-4" x1="717.5" y1="104.5" x2="713.5" y2="104.5"/><line class="cls-4" x1="717.5" y1="109.5" x2="713.5" y2="109.5"/><line class="cls-4" x1="717.5" y1="118.5" x2="713.5" y2="118.5"/><line class="cls-4" x1="717.5" y1="123.5" x2="713.5" y2="123.5"/><line class="cls-4" x1="709.5" y1="94.5" x2="711.96" y2="96.96"/><line class="cls-4" x1="721.5" y1="94.5" x2="719.04" y2="96.96"/><polyline class="cls-3" points="754 81 754 73 758 70 448 70"/><line class="cls-9" x1="450.5" y1="72.5" x2="750.5" y2="72.5"/><path class="cls-3" d="M754,70"/><line class="cls-3" x1="444" y1="58" x2="756" y2="58"/><line class="cls-3" x1="754" y1="58" x2="754" y2="70"/><line class="cls-5" x1="495.5" y1="58.5" x2="495.5" y2="64.5"/><line class="cls-5" x1="481.5" y1="58.5" x2="481.5" y2="64.5"/><line class="cls-5" x1="483.5" y1="58.5" x2="483.5" y2="64.5"/><line class="cls-5" x1="485.5" y1="58.5" x2="485.5" y2="64.5"/><line class="cls-5" x1="487.5" y1="58.5" x2="487.5" y2="64.5"/><line class="cls-5" x1="489.5" y1="58.5" x2="489.5" y2="64.5"/><line class="cls-5" x1="491.5" y1="58.5" x2="491.5" y2="64.5"/><line class="cls-5" x1="493.5" y1="58.5" x2="493.5" y2="64.5"/><line class="cls-5" x1="467.5" y1="58.5" x2="467.5" y2="64.5"/><line class="cls-5" x1="469.5" y1="58.5" x2="469.5" y2="64.5"/><line class="cls-5" x1="471.5" y1="58.5" x2="471.5" y2="64.5"/><line class="cls-5" x1="473.5" y1="58.5" x2="473.5" y2="64.5"/><line class="cls-5" x1="475.5" y1="58.5" x2="475.5" y2="64.5"/><line class="cls-5" x1="477.5" y1="58.5" x2="477.5" y2="64.5"/><line class="cls-5" x1="479.5" y1="58.5" x2="479.5" y2="64.5"/><line class="cls-5" x1="465.5" y1="58.5" x2="465.5" y2="64.5"/><line class="cls-5" x1="542.5" y1="58.5" x2="542.5" y2="64.5"/><line class="cls-5" x1="528.5" y1="58.5" x2="528.5" y2="64.5"/><line class="cls-5" x1="530.5" y1="58.5" x2="530.5" y2="64.5"/><line class="cls-5" x1="532.5" y1="58.5" x2="532.5" y2="64.5"/><line class="cls-5" x1="534.5" y1="58.5" x2="534.5" y2="64.5"/><line class="cls-5" x1="536.5" y1="58.5" x2="536.5" y2="64.5"/><line class="cls-5" x1="538.5" y1="58.5" x2="538.5" y2="64.5"/><line class="cls-5" x1="540.5" y1="58.5" x2="540.5" y2="64.5"/><line class="cls-5" x1="514.5" y1="58.5" x2="514.5" y2="64.5"/><line class="cls-5" x1="516.5" y1="58.5" x2="516.5" y2="64.5"/><line class="cls-5" x1="518.5" y1="58.5" x2="518.5" y2="64.5"/><line class="cls-5" x1="520.5" y1="58.5" x2="520.5" y2="64.5"/><line class="cls-5" x1="522.5" y1="58.5" x2="522.5" y2="64.5"/><line class="cls-5" x1="524.5" y1="58.5" x2="524.5" y2="64.5"/><line class="cls-5" x1="526.5" y1="58.5" x2="526.5" y2="64.5"/><line class="cls-5" x1="512.5" y1="58.5" x2="512.5" y2="64.5"/><line class="cls-5" x1="589.5" y1="58.5" x2="589.5" y2="64.5"/><line class="cls-5" x1="575.5" y1="58.5" x2="575.5" y2="64.5"/><line class="cls-5" x1="577.5" y1="58.5" x2="577.5" y2="64.5"/><line class="cls-5" x1="579.5" y1="58.5" x2="579.5" y2="64.5"/><line class="cls-5" x1="581.5" y1="58.5" x2="581.5" y2="64.5"/><line class="cls-5" x1="583.5" y1="58.5" x2="583.5" y2="64.5"/><line class="cls-5" x1="585.5" y1="58.5" x2="585.5" y2="64.5"/><line class="cls-5" x1="587.5" y1="58.5" x2="587.5" y2="64.5"/><line class="cls-5" x1="561.5" y1="58.5" x2="561.5" y2="64.5"/><line class="cls-5" x1="563.5" y1="58.5" x2="563.5" y2="64.5"/><line class="cls-5" x1="565.5" y1="58.5" x2="565.5" y2="64.5"/><line class="cls-5" x1="567.5" y1="58.5" x2="567.5" y2="64.5"/><line class="cls-5" x1="569.5" y1="58.5" x2="569.5" y2="64.5"/><line class="cls-5" x1="571.5" y1="58.5" x2="571.5" y2="64.5"/><line class="cls-5" x1="573.5" y1="58.5" x2="573.5" y2="64.5"/><line class="cls-5" x1="559.5" y1="58.5" x2="559.5" y2="64.5"/><line class="cls-5" x1="636.5" y1="58.5" x2="636.5" y2="64.5"/><line class="cls-5" x1="622.5" y1="58.5" x2="622.5" y2="64.5"/><line class="cls-5" x1="624.5" y1="58.5" x2="624.5" y2="64.5"/><line class="cls-5" x1="626.5" y1="58.5" x2="626.5" y2="64.5"/><line class="cls-5" x1="628.5" y1="58.5" x2="628.5" y2="64.5"/><line class="cls-5" x1="630.5" y1="58.5" x2="630.5" y2="64.5"/><line class="cls-5" x1="632.5" y1="58.5" x2="632.5" y2="64.5"/><line class="cls-5" x1="634.5" y1="58.5" x2="634.5" y2="64.5"/><line class="cls-5" x1="608.5" y1="58.5" x2="608.5" y2="64.5"/><line class="cls-5" x1="610.5" y1="58.5" x2="610.5" y2="64.5"/><line class="cls-5" x1="612.5" y1="58.5" x2="612.5" y2="64.5"/><line class="cls-5" x1="614.5" y1="58.5" x2="614.5" y2="64.5"/><line class="cls-5" x1="616.5" y1="58.5" x2="616.5" y2="64.5"/><line class="cls-5" x1="618.5" y1="58.5" x2="618.5" y2="64.5"/><line class="cls-5" x1="620.5" y1="58.5" x2="620.5" y2="64.5"/><line class="cls-5" x1="606.5" y1="58.5" x2="606.5" y2="64.5"/><line class="cls-5" x1="683.5" y1="58.5" x2="683.5" y2="64.5"/><line class="cls-5" x1="669.5" y1="58.5" x2="669.5" y2="64.5"/><line class="cls-5" x1="671.5" y1="58.5" x2="671.5" y2="64.5"/><line class="cls-5" x1="673.5" y1="58.5" x2="673.5" y2="64.5"/><line class="cls-5" x1="675.5" y1="58.5" x2="675.5" y2="64.5"/><line class="cls-5" x1="677.5" y1="58.5" x2="677.5" y2="64.5"/><line class="cls-5" x1="679.5" y1="58.5" x2="679.5" y2="64.5"/><line class="cls-5" x1="681.5" y1="58.5" x2="681.5" y2="64.5"/><line class="cls-5" x1="655.5" y1="58.5" x2="655.5" y2="64.5"/><line class="cls-5" x1="657.5" y1="58.5" x2="657.5" y2="64.5"/><line class="cls-5" x1="659.5" y1="58.5" x2="659.5" y2="64.5"/><line class="cls-5" x1="661.5" y1="58.5" x2="661.5" y2="64.5"/><line class="cls-5" x1="663.5" y1="58.5" x2="663.5" y2="64.5"/><line class="cls-5" x1="665.5" y1="58.5" x2="665.5" y2="64.5"/><line class="cls-5" x1="667.5" y1="58.5" x2="667.5" y2="64.5"/><line class="cls-5" x1="653.5" y1="58.5" x2="653.5" y2="64.5"/><line class="cls-5" x1="730.5" y1="58.5" x2="730.5" y2="64.5"/><line class="cls-5" x1="716.5" y1="58.5" x2="716.5" y2="64.5"/><line class="cls-5" x1="718.5" y1="58.5" x2="718.5" y2="64.5"/><line class="cls-5" x1="720.5" y1="58.5" x2="720.5" y2="64.5"/><line class="cls-5" x1="722.5" y1="58.5" x2="722.5" y2="64.5"/><line class="cls-5" x1="724.5" y1="58.5" x2="724.5" y2="64.5"/><line class="cls-5" x1="726.5" y1="58.5" x2="726.5" y2="64.5"/><line class="cls-5" x1="728.5" y1="58.5" x2="728.5" y2="64.5"/><line class="cls-5" x1="702.5" y1="58.5" x2="702.5" y2="64.5"/><line class="cls-5" x1="704.5" y1="58.5" x2="704.5" y2="64.5"/><line class="cls-5" x1="706.5" y1="58.5" x2="706.5" y2="64.5"/><line class="cls-5" x1="708.5" y1="58.5" x2="708.5" y2="64.5"/><line class="cls-5" x1="710.5" y1="58.5" x2="710.5" y2="64.5"/><line class="cls-5" x1="712.5" y1="58.5" x2="712.5" y2="64.5"/><line class="cls-5" x1="714.5" y1="58.5" x2="714.5" y2="64.5"/><line class="cls-5" x1="700.5" y1="58.5" x2="700.5" y2="64.5"/><line class="cls-4" x1="747.5" y1="58.5" x2="747.5" y2="64.5"/><line class="cls-10" x1="446.5" y1="66.5" x2="750.5" y2="66.5"/><ellipse class="cls-4" cx="504.5" cy="51" rx="5" ry="4.5"/><rect class="cls-4" x="503.5" y="55.5" width="2" height="1.5"/><line class="cls-3" x1="499" y1="51" x2="499" y2="50"/><line class="cls-3" x1="510" y1="51" x2="510" y2="50"/><path class="cls-4" d="M503.5,50.5a1,1,0,0,1,2,0"/><line class="cls-4" x1="509.5" y1="47.5" x2="499.5" y2="47.5"/><line class="cls-3" x1="505" y1="45" x2="504" y2="45"/><rect class="cls-4" x="456.5" y="55.5" width="2" height="1.5"/><path class="cls-4" d="M459.5,49.5l-1,3,1,1a2,2,0,0,1-4,0l1-1-1-3"/><circle class="cls-4" cx="457.5" cy="47.5" r="2"/><path class="cls-3" d="M461.5,47.5s-1,2-4,0-4,0-4,0"/><line class="cls-3" x1="458" y1="44" x2="457" y2="44"/><rect class="cls-4" x="550.5" y="55.5" width="2" height="1.5"/><path class="cls-4" d="M549.5,49.5l1,3-1,1a2,2,0,1,0,4,0l-1-1,1-3"/><circle class="cls-4" cx="551.5" cy="47.5" r="2"/><path class="cls-3" d="M547.5,47.5s1,2,4,0,4,0,4,0"/><line class="cls-3" x1="551" y1="44" x2="552" y2="44"/><rect class="cls-4" x="644.5" y="55.5" width="2" height="1.5"/><path class="cls-4" d="M647.5,49.5l-1,3,1,1a2,2,0,1,1-4,0l1-1-1-3"/><circle class="cls-4" cx="645.5" cy="47.5" r="2"/><path class="cls-3" d="M649.5,47.5s-1,2-4,0-4,0-4,0"/><line class="cls-3" x1="646" y1="44" x2="645" y2="44"/><rect class="cls-8" x="738.5" y="55.5" width="2" height="1.5"/><path class="cls-8" d="M737.5,49.5l1,3-1,1a2,2,0,1,0,4,0l-1-1,1-3"/><circle class="cls-8" cx="739.5" cy="47.5" r="2"/><path class="cls-3" d="M735.5,47.5s1,2,4,0,4,0,4,0"/><line class="cls-3" x1="739" y1="44" x2="740" y2="44"/><ellipse class="cls-4" cx="598.5" cy="51" rx="5" ry="4.5"/><rect class="cls-4" x="597.5" y="55.5" width="2" height="1.5"/><line class="cls-3" x1="593" y1="51" x2="593" y2="50"/><line class="cls-3" x1="604" y1="51" x2="604" y2="50"/><path class="cls-4" d="M597.5,50.5a1,1,0,0,1,2,0"/><line class="cls-4" x1="603.5" y1="47.5" x2="593.5" y2="47.5"/><line class="cls-3" x1="599" y1="45" x2="598" y2="45"/><ellipse class="cls-4" cx="692.5" cy="51" rx="5" ry="4.5"/><rect class="cls-4" x="691.5" y="55.5" width="2" height="1.5"/><line class="cls-3" x1="687" y1="51" x2="687" y2="50"/><line class="cls-3" x1="698" y1="51" x2="698" y2="50"/><path class="cls-4" d="M691.5,50.5a1,1,0,0,1,2,0"/><line class="cls-4" x1="697.5" y1="47.5" x2="687.5" y2="47.5"/><line class="cls-3" x1="693" y1="45" x2="692" y2="45"/><polyline class="cls-4" points="600.5 32.5 600.5 34.5 595.5 34.5 595.5 32.5"/><polyline class="cls-4" points="620.5 32.5 620.5 33.5 615.5 33.5 615.5 32.5"/><path class="cls-3" d="M454,32"/><path class="cls-3" d="M460,32"/><polyline class="cls-4" points="459.5 32.5 459.5 34.5 454.5 34.5 454.5 32.5"/><polyline class="cls-4" points="670.5 32.5 670.5 34.5 665.5 34.5 665.5 32.5"/><polyline class="cls-4" points="474.5 32.5 474.5 33.5 469.5 33.5 469.5 32.5"/><path class="cls-1" d="M443,129V31h-8.78C427.1,22.3,415.9,15.25,400,12H359c-15.9,3.25-27.1,10.3-34.22,19H316v98"/><path class="cls-3" d="M388,100c0-6-4-9-8.5-9s-8.5,3-8.5,9v29h17Z"/><path class="cls-3" d="M431,100c0-6-3.29-9-7-9s-7,3-7,9v29h14Z"/><line class="cls-3" x1="388" y1="129" x2="417" y2="129"/><line class="cls-3" x1="431" y1="129" x2="444" y2="129"/><line class="cls-3" x1="388" y1="101" x2="417" y2="101"/><polyline class="cls-3" points="400 129 400 101 395 101 395 129"/><polyline class="cls-3" points="411 129 411 101 406 101 406 129"/><polyline class="cls-4" points="410.5 102.5 407.5 103.5 408.5 105.5 407.5 107.5 410.5 108.5 408.5 110.5 407.5 112.5 409.5 113.5 407.5 114.5 408.5 117.5 408.5 115.5 410.5 113.5"/><polyline class="cls-4" points="398.5 102.5 396.5 104.5 398.5 105.5 396.5 107.5 398.5 108.5 396.5 109.5 396.5 111.5 398.5 112.5 396.5 114.5 397.5 116.5 398.5 114.5 399.5 113.5"/><polyline class="cls-4" points="406.5 100.5 405.5 95.5 405.5 93.5 406.5 92.5 405.5 89.5 406.5 87.5 408.5 85.5 406.5 83.5 408.5 81.5 411.5 81.5 412.5 83.5 414.5 82.5 415.5 80.5 417.5 82.5 416.5 84.5 412.5 87.5 413.5 90.5 412.5 95.5 413.5 98.5 412.5 100.5"/><polyline class="cls-4" points="444.5 100.5 445.5 97.5 446.5 95.5 445.5 90.5 446.5 87.5 445.5 86.5 443.5 86.5 442.5 88.5 440.5 90.5"/><polyline class="cls-4" points="401.5 100.5 401.5 96.5 399.5 93.5 400.5 90.5 400.5 88.5 398.5 84.5 398.5 82.5 395.5 81.5 393.5 83.5 393.5 86.5 390.5 84.5 389.5 87.5 390.5 90.5 391.5 94.5 392.5 95.5 392.5 98.5 393.5 100.5"/><line class="cls-3" x1="431" y1="101" x2="444" y2="101"/><polyline class="cls-3" points="439 129 439 101 435 101 435 129"/><polyline class="cls-4" points="438.5 102.5 436.5 104.5 438.5 105.5 436.5 107.5 438.5 108.5 436.5 109.5 436.5 111.5 438.5 112.5 436.5 114.5 437.5 116.5 438.5 114.5 439.5 113.5"/><polyline class="cls-4" points="441.5 100.5 441.5 96.5 439.5 93.5 440.5 90.5 440.5 88.5 438.5 84.5 438.5 82.5 435.5 81.5 433.5 83.5 433.5 86.5 430.5 84.5 429.5 87.5 430.5 90.5 432.5 94.5 433.5 95.5 433.5 98.5 434.5 100.5"/><line class="cls-3" x1="444" y1="129" x2="444" y2="101"/><path class="cls-3" d="M444,81"/><path class="cls-3" d="M444,86"/><line class="cls-4" x1="448.5" y1="100.5" x2="446.5" y2="96.5"/><line class="cls-4" x1="379.5" y1="92.5" x2="379.5" y2="127.5"/><line class="cls-4" x1="372.5" y1="113.5" x2="386.5" y2="113.5"/><line class="cls-4" x1="372.5" y1="100.5" x2="386.5" y2="100.5"/><line class="cls-4" x1="372.5" y1="104.5" x2="374.5" y2="104.5"/><line class="cls-4" x1="372.5" y1="109.5" x2="374.5" y2="109.5"/><line class="cls-4" x1="372.5" y1="118.5" x2="374.5" y2="118.5"/><line class="cls-4" x1="372.5" y1="123.5" x2="374.5" y2="123.5"/><line class="cls-4" x1="386.5" y1="104.5" x2="384.5" y2="104.5"/><line class="cls-4" x1="386.5" y1="109.5" x2="384.5" y2="109.5"/><line class="cls-4" x1="386.5" y1="118.5" x2="384.5" y2="118.5"/><line class="cls-4" x1="386.5" y1="123.5" x2="384.5" y2="123.5"/><line class="cls-4" x1="381.5" y1="104.5" x2="377.5" y2="104.5"/><line class="cls-4" x1="381.5" y1="109.5" x2="377.5" y2="109.5"/><line class="cls-4" x1="381.5" y1="118.5" x2="377.5" y2="118.5"/><line class="cls-4" x1="381.5" y1="123.5" x2="377.5" y2="123.5"/><line class="cls-4" x1="373.5" y1="94.5" x2="375.96" y2="96.96"/><line class="cls-4" x1="385.5" y1="94.5" x2="383.04" y2="96.96"/><line class="cls-4" x1="424.5" y1="92.5" x2="424.5" y2="127.5"/><line class="cls-4" x1="419" y1="113.5" x2="430" y2="113.5"/><line class="cls-4" x1="419" y1="100.5" x2="430" y2="100.5"/><line class="cls-4" x1="419" y1="104.5" x2="420.57" y2="104.5"/><line class="cls-4" x1="419" y1="109.5" x2="420.57" y2="109.5"/><line class="cls-4" x1="419" y1="118.5" x2="420.57" y2="118.5"/><line class="cls-4" x1="419" y1="123.5" x2="420.57" y2="123.5"/><line class="cls-4" x1="430" y1="104.5" x2="428.43" y2="104.5"/><line class="cls-4" x1="430" y1="109.5" x2="428.43" y2="109.5"/><line class="cls-4" x1="430" y1="118.5" x2="428.43" y2="118.5"/><line class="cls-4" x1="430" y1="123.5" x2="428.43" y2="123.5"/><line class="cls-4" x1="426.07" y1="104.5" x2="422.93" y2="104.5"/><line class="cls-4" x1="426.07" y1="109.5" x2="422.93" y2="109.5"/><line class="cls-4" x1="426.07" y1="118.5" x2="422.93" y2="118.5"/><line class="cls-4" x1="426.07" y1="123.5" x2="422.93" y2="123.5"/><line class="cls-4" x1="419.79" y1="94.5" x2="421.72" y2="96.96"/><line class="cls-4" x1="429.21" y1="94.5" x2="427.28" y2="96.96"/><path class="cls-3" d="M328,100c0-6,3.29-9,7-9s7,3,7,9v29H328Z"/><line class="cls-3" x1="371" y1="129" x2="342" y2="129"/><line class="cls-3" x1="328" y1="129" x2="315" y2="129"/><line class="cls-3" x1="371" y1="101" x2="342" y2="101"/><polyline class="cls-3" points="359 129 359 101 364 101 364 129"/><polyline class="cls-3" points="348 129 348 101 353 101 353 129"/><polyline class="cls-4" points="348.5 102.5 351.5 103.5 350.5 105.5 351.5 107.5 348.5 108.5 350.5 110.5 351.5 112.5 349.5 113.5 351.5 114.5 350.5 117.5 350.5 115.5 348.5 113.5"/><polyline class="cls-4" points="360.5 102.5 362.5 104.5 360.5 105.5 362.5 107.5 360.5 108.5 362.5 109.5 362.5 111.5 360.5 112.5 362.5 114.5 361.5 116.5 360.5 114.5 359.5 113.5"/><polyline class="cls-4" points="352.5 100.5 353.5 95.5 353.5 93.5 352.5 92.5 353.5 89.5 352.5 87.5 350.5 85.5 352.5 83.5 350.5 81.5 347.5 81.5 346.5 83.5 344.5 82.5 343.5 80.5 341.5 82.5 342.5 84.5 346.5 87.5 345.5 90.5 346.5 95.5 345.5 98.5 346.5 100.5"/><polyline class="cls-4" points="314.5 100.5 313.5 97.5 312.5 95.5 313.5 90.5 312.5 87.5 313.5 86.5 315.5 86.5 316.5 88.5 318.5 90.5"/><polyline class="cls-4" points="357.5 100.5 357.5 96.5 359.5 93.5 358.5 90.5 358.5 88.5 360.5 84.5 360.5 82.5 363.5 81.5 365.5 83.5 365.5 86.5 368.5 84.5 369.5 87.5 368.5 90.5 367.5 94.5 366.5 95.5 366.5 98.5 365.5 100.5"/><line class="cls-3" x1="328" y1="101" x2="315" y2="101"/><polyline class="cls-3" points="320 129 320 101 324 101 324 129"/><polyline class="cls-4" points="320.5 102.5 322.5 104.5 320.5 105.5 322.5 107.5 320.5 108.5 322.5 109.5 322.5 111.5 320.5 112.5 322.5 114.5 321.5 116.5 320.5 114.5 319.5 113.5"/><polyline class="cls-4" points="317.5 100.5 317.5 96.5 319.5 93.5 318.5 90.5 318.5 88.5 320.5 84.5 320.5 82.5 323.5 81.5 325.5 83.5 325.5 86.5 328.5 84.5 329.5 87.5 328.5 90.5 326.5 94.5 325.5 95.5 325.5 98.5 324.5 100.5"/><line class="cls-3" x1="315" y1="129" x2="315" y2="101"/><path class="cls-3" d="M315,81"/><path class="cls-3" d="M315,86"/><line class="cls-4" x1="334.5" y1="92.5" x2="334.5" y2="127.5"/><line class="cls-4" x1="340" y1="113.5" x2="329" y2="113.5"/><line class="cls-4" x1="340" y1="100.5" x2="329" y2="100.5"/><line class="cls-4" x1="340" y1="104.5" x2="338.43" y2="104.5"/><line class="cls-4" x1="340" y1="109.5" x2="338.43" y2="109.5"/><line class="cls-4" x1="340" y1="118.5" x2="338.43" y2="118.5"/><line class="cls-4" x1="340" y1="123.5" x2="338.43" y2="123.5"/><line class="cls-4" x1="329" y1="104.5" x2="330.57" y2="104.5"/><line class="cls-4" x1="329" y1="109.5" x2="330.57" y2="109.5"/><line class="cls-4" x1="329" y1="118.5" x2="330.57" y2="118.5"/><line class="cls-4" x1="329" y1="123.5" x2="330.57" y2="123.5"/><line class="cls-4" x1="332.93" y1="104.5" x2="336.07" y2="104.5"/><line class="cls-4" x1="332.93" y1="109.5" x2="336.07" y2="109.5"/><line class="cls-4" x1="332.93" y1="118.5" x2="336.07" y2="118.5"/><line class="cls-4" x1="332.93" y1="123.5" x2="336.07" y2="123.5"/><line class="cls-4" x1="339.21" y1="94.5" x2="337.28" y2="96.96"/><line class="cls-4" x1="329.79" y1="94.5" x2="331.72" y2="96.96"/><polyline class="cls-3" points="444 86 444 73 448 70 311 70 315 73 315 86"/><line class="cls-9" x1="317.5" y1="72.5" x2="441.5" y2="72.5"/><line class="cls-11" x1="317.5" y1="66.5" x2="441.5" y2="66.5"/><polyline class="cls-3" points="444 70 444 58 315 58 315 70"/><line class="cls-4" x1="310.5" y1="100.5" x2="312.5" y2="96.5"/><polygon class="cls-2" points="400 12 359 12 359 9 360 9 360 3 359 3 359 1 400 1 400 3 399 3 399 9 400 9 400 12"/><line class="cls-12" x1="362.5" y1="9.5" x2="396.5" y2="9.5"/><line class="cls-3" x1="444" y1="81" x2="315" y2="81"/><rect class="cls-4" x="378.5" y="3.5" width="2" height="4" rx="1" ry="1"/><rect class="cls-4" x="374.5" y="3.5" width="2" height="4" rx="1" ry="1"/><rect class="cls-4" x="364.5" y="3.5" width="2" height="4" rx="1" ry="1"/><rect class="cls-4" x="382.5" y="3.5" width="2" height="4" rx="1" ry="1"/><rect class="cls-4" x="392.5" y="3.5" width="2" height="4" rx="1" ry="1"/><ellipse class="cls-4" cx="379.5" cy="41.5" rx="3" ry="5"/><line class="cls-3" x1="371" y1="50" x2="388" y2="50"/><path class="cls-3" d="M388,34c-4,0-5-3-8.5-3s-4.5,3-8.5,3"/><path class="cls-4" d="M388,50c-5,0-3-16,0-16"/><path class="cls-4" d="M371,34c3,0,5,16,0,16"/><polyline class="cls-4" points="378.5 30.5 377.5 26.5 375.5 27.5 375.5 25.5 377.5 25.5 377.5 23.5 379.5 22.5 381.5 24.5 380.5 25.5 380.5 27.5 382.5 26.5 381.5 30.5"/><line class="cls-4" x1="379.5" y1="46.5" x2="379.5" y2="44.5"/><line class="cls-4" x1="379.5" y1="36.5" x2="379.5" y2="38.5"/><line class="cls-4" x1="382.5" y1="41.5" x2="380.5" y2="41.5"/><line class="cls-4" x1="376.5" y1="41.5" x2="378.5" y2="41.5"/><ellipse class="cls-4" cx="422" cy="41.5" rx="2.47" ry="5"/><line class="cls-3" x1="415" y1="50" x2="429" y2="50"/><path class="cls-3" d="M429,34c-3.29,0-4.12-3-7-3s-3.71,3-7,3"/><path class="cls-4" d="M429,50c-4.12,0-2.47-16,0-16"/><path class="cls-4" d="M415,34c2.65,0,4.41,16,0,16"/><polyline class="cls-4" points="412.5 30.5 420.5 30.5 419.5 29.5 421.5 24.5 421.5 22.5 423.5 22.5 425.5 24.5 425.5 26.5 423.5 26.5 424.5 28.5 423.5 30.5"/><line class="cls-4" x1="422" y1="46.5" x2="422" y2="44.5"/><line class="cls-4" x1="422" y1="36.5" x2="422" y2="38.5"/><line class="cls-4" x1="424.5" y1="41.5" x2="422.83" y2="41.5"/><line class="cls-4" x1="419.5" y1="41.5" x2="421.17" y2="41.5"/><ellipse class="cls-4" cx="337" cy="41.5" rx="2.47" ry="5"/><line class="cls-3" x1="344" y1="50" x2="330" y2="50"/><path class="cls-3" d="M330,34c3.29,0,4.12-3,7-3s3.71,3,7,3"/><path class="cls-4" d="M330,50c4.12,0,2.47-16,0-16"/><path class="cls-4" d="M344,34c-2.65,0-4.41,16,0,16"/><polyline class="cls-4" points="346.5 30.5 338.5 30.5 339.5 29.5 337.5 24.5 337.5 22.5 335.5 22.5 333.5 24.5 333.5 26.5 335.5 26.5 334.5 28.5 335.5 30.5"/><line class="cls-4" x1="337" y1="46.5" x2="337" y2="44.5"/><line class="cls-4" x1="337" y1="36.5" x2="337" y2="38.5"/><line class="cls-4" x1="334.5" y1="41.5" x2="336.17" y2="41.5"/><line class="cls-4" x1="339.5" y1="41.5" x2="337.83" y2="41.5"/><path class="cls-3" d="M359,12"/><path class="cls-4" d="M318.17,42a43.49,43.49,0,0,1,6.6-11"/><path class="cls-3" d="M359,12c-15.9,3.25-27.1,10.3-34.22,19H316v5"/><polyline class="cls-8" points="318.5 30.5 320.5 27.5 318.5 24.5 318.5 22.5 316.5 22.5 314.5 23.5 315.5 26.5 316.5 27.5 315.5 28.5 316.5 30.5"/><path class="cls-4" d="M440.83,42a43.49,43.49,0,0,0-6.6-11"/><path class="cls-3" d="M400,12c15.9,3.25,27.1,10.3,34.22,19H443v5"/><polyline class="cls-8" points="440.5 30.5 438.5 27.5 440.5 24.5 440.5 22.5 442.5 22.5 444.5 23.5 443.5 26.5 442.5 27.5 443.5 28.5 442.5 30.5"/><ellipse class="cls-4" cx="358.5" cy="50" rx="5" ry="4.5"/><rect class="cls-4" x="357.5" y="55.5" width="2" height="1.5"/><polyline class="cls-4" points="361 46 361 43.5 362 42.5 355 42.5 356 43.5 356 46"/><line class="cls-3" x1="364" y1="50" x2="364" y2="49"/><line class="cls-3" x1="353" y1="50" x2="353" y2="49"/><path class="cls-4" d="M359.5,50.5v-1a1,1,0,0,0-2,0v1"/><circle class="cls-4" cx="358.5" cy="40.5" r="2"/><circle class="cls-4" cx="358.5" cy="37.5" r="1"/><line class="cls-3" x1="357" y1="55" x2="360" y2="55"/><ellipse class="cls-4" cx="316.5" cy="50" rx="5" ry="4.5"/><rect class="cls-4" x="315.5" y="55.5" width="2" height="1.5"/><polyline class="cls-4" points="319 46 319 43.5 320 42.5 313 42.5 314 43.5 314 46"/><path class="cls-4" d="M315.5,49.5a1,1,0,0,0-2,0v1"/><path class="cls-4" d="M321.5,50.5v-1a1,1,0,0,0-2,0"/><circle class="cls-4" cx="316.5" cy="40.5" r="2"/><circle class="cls-4" cx="316.5" cy="37.5" r="1"/><line class="cls-3" x1="315" y1="55" x2="318" y2="55"/><ellipse class="cls-4" cx="442.5" cy="50" rx="5" ry="4.5"/><rect class="cls-4" x="441.5" y="55.5" width="2" height="1.5"/><polyline class="cls-4" points="440 46 440 43.5 439 42.5 446 42.5 445 43.5 445 46"/><path class="cls-4" d="M443.5,49.5a1,1,0,0,1,2,0v1"/><path class="cls-4" d="M437.5,50.5v-1a1,1,0,0,1,2,0"/><circle class="cls-4" cx="442.5" cy="40.5" r="2"/><circle class="cls-4" cx="442.5" cy="37.5" r="1"/><line class="cls-3" x1="444" y1="55" x2="441" y2="55"/><ellipse class="cls-4" cx="400.5" cy="50" rx="5" ry="4.5"/><rect class="cls-4" x="399.5" y="55.5" width="2" height="1.5"/><polyline class="cls-4" points="398 46 398 43.5 397 42.5 404 42.5 403 43.5 403 46"/><line class="cls-3" x1="395" y1="50" x2="395" y2="49"/><line class="cls-3" x1="406" y1="50" x2="406" y2="49"/><path class="cls-4" d="M399.5,50.5v-1a1,1,0,0,1,2,0v1"/><circle class="cls-4" cx="400.5" cy="40.5" r="2"/><circle class="cls-4" cx="400.5" cy="37.5" r="1"/><line class="cls-3" x1="402" y1="55" x2="399" y2="55"/></g></g></svg>