<svg xmlns="http://www.w3.org/2000/svg" viewBox="0 0 292 149"><defs><style>.cls-1{fill:#fff;}.cls-1,.cls-10,.cls-2,.cls-3,.cls-4,.cls-5,.cls-6,.cls-7,.cls-8,.cls-9{stroke:#333;stroke-linecap:round;stroke-linejoin:round;}.cls-1,.cls-3{stroke-width:2px;}.cls-10,.cls-2,.cls-3,.cls-4,.cls-5,.cls-6,.cls-7,.cls-8,.cls-9{fill:none;}.cls-4{stroke-dasharray:18 4 6 4;}.cls-5{stroke-dasharray:8 4 2 4;}.cls-6{stroke-dasharray:8 4 12 4;}.cls-7{stroke-dasharray:5 4 6;}.cls-8{stroke-dasharray:18 2 2 2;}.cls-9{stroke-dasharray:48 4 18 4;}.cls-10{stroke-dasharray:18 4 48 4;}</style></defs><title>potsdam-nauener</title><g id="Ebene_2" data-name="Ebene 2"><g id="Ebene_3" data-name="Ebene 3"><path class="cls-1" d="M203,43V36h1V26H164V36h1v7h1v82l-2,23h14V136c0-6,6-8,6-8s6,2,6,8v12h14l-2-23V43Z"/><path class="cls-2" d="M180.5,115.5V105c0-5,4-6,4-6s4,1,4,6V115.5"/><path class="cls-2" d="M179.5,87.5V75c0-5,5-7,5-7s5,2,5,7V87.5"/><path class="cls-2" d="M182.5,56.5V50.94a3.38,3.38,0,0,1,2-2.94,3.38,3.38,0,0,1,2,2.94V56.5"/><line class="cls-3" x1="181" y1="32" x2="181" y2="26"/><line class="cls-3" x1="187" y1="32" x2="187" y2="26"/><line class="cls-3" x1="193" y1="32" x2="193" y2="26"/><line class="cls-3" x1="169" y1="32" x2="169" y2="26"/><line class="cls-3" x1="175" y1="32" x2="175" y2="26"/><line class="cls-3" x1="199" y1="32" x2="199" y2="26"/><line class="cls-3" x1="181" y1="116" x2="188" y2="116"/><line class="cls-3" x1="180" y1="88" x2="189" y2="88"/><line class="cls-3" x1="183" y1="57" x2="186" y2="57"/><path class="cls-2" d="M170.5,56.5V50.94A3.37,3.37,0,0,1,172,48a3.37,3.37,0,0,1,1.5,2.94V56.5"/><line class="cls-3" x1="170.88" y1="57" x2="173.13" y2="57"/><path class="cls-2" d="M195.5,56.5V50.94A3.37,3.37,0,0,1,197,48a3.37,3.37,0,0,1,1.5,2.94V56.5"/><line class="cls-3" x1="195.88" y1="57" x2="198.13" y2="57"/><line class="cls-2" x1="184.5" y1="115.5" x2="184.5" y2="104.5"/><path class="cls-2" d="M187.5,101.5s-3,1-3,4c0-3-3-4-3-4"/><line class="cls-2" x1="184.5" y1="87.5" x2="184.5" y2="75.5"/><path class="cls-2" d="M187.5,70.5s-3,2-3,5c0-3-3-5-3-5"/><line class="cls-4" x1="167.5" y1="36.5" x2="200.5" y2="36.5"/><polyline class="cls-2" points="182.5 40.5 182.5 42.5 181.5 42.5"/><polyline class="cls-2" points="186.5 40.5 186.5 42.5 185.5 42.5"/><polyline class="cls-2" points="190.5 40.5 190.5 42.5 189.5 42.5"/><polyline class="cls-2" points="194.5 40.5 194.5 42.5 193.5 42.5"/><polyline class="cls-2" points="198.5 40.5 198.5 42.5 197.5 42.5"/><polyline class="cls-2" points="170.5 40.5 170.5 42.5 169.5 42.5"/><polyline class="cls-2" points="174.5 40.5 174.5 42.5 173.5 42.5"/><polyline class="cls-2" points="178.5 40.5 178.5 42.5 177.5 42.5"/><polygon class="cls-1" points="184 1 194 26 174 26 184 1"/><line class="cls-5" x1="177" y1="26" x2="184" y2="9"/><path class="cls-1" d="M127,43V36h1V26H88V36h1v7h1v82l-2,23h14V136c0-6,6-8,6-8s6,2,6,8v12h14l-2-23V43Z"/><path class="cls-2" d="M104.5,115.5V105c0-5,4-6,4-6s4,1,4,6V115.5"/><path class="cls-2" d="M103.5,87.5V75c0-5,5-7,5-7s5,2,5,7V87.5"/><path class="cls-2" d="M106.5,56.5V50.94a3.38,3.38,0,0,1,2-2.94,3.38,3.38,0,0,1,2,2.94V56.5"/><line class="cls-3" x1="105" y1="32" x2="105" y2="26"/><line class="cls-3" x1="111" y1="32" x2="111" y2="26"/><line class="cls-3" x1="117" y1="32" x2="117" y2="26"/><line class="cls-3" x1="93" y1="32" x2="93" y2="26"/><line class="cls-3" x1="99" y1="32" x2="99" y2="26"/><line class="cls-3" x1="123" y1="32" x2="123" y2="26"/><line class="cls-3" x1="105" y1="116" x2="112" y2="116"/><line class="cls-3" x1="104" y1="88" x2="113" y2="88"/><line class="cls-3" x1="107" y1="57" x2="110" y2="57"/><path class="cls-2" d="M94.5,56.5V50.94A3.37,3.37,0,0,1,96,48a3.37,3.37,0,0,1,1.5,2.94V56.5"/><line class="cls-3" x1="94.88" y1="57" x2="97.13" y2="57"/><path class="cls-2" d="M119.5,56.5V50.94A3.37,3.37,0,0,1,121,48a3.37,3.37,0,0,1,1.5,2.94V56.5"/><line class="cls-3" x1="119.88" y1="57" x2="122.13" y2="57"/><line class="cls-2" x1="108.5" y1="115.5" x2="108.5" y2="104.5"/><path class="cls-2" d="M111.5,101.5s-3,1-3,4c0-3-3-4-3-4"/><line class="cls-2" x1="108.5" y1="87.5" x2="108.5" y2="75.5"/><path class="cls-2" d="M111.5,70.5s-3,2-3,5c0-3-3-5-3-5"/><line class="cls-6" x1="91.5" y1="36.5" x2="124.5" y2="36.5"/><polyline class="cls-2" points="106.5 40.5 106.5 42.5 105.5 42.5"/><polyline class="cls-2" points="110.5 40.5 110.5 42.5 109.5 42.5"/><polyline class="cls-2" points="114.5 40.5 114.5 42.5 113.5 42.5"/><polyline class="cls-2" points="118.5 40.5 118.5 42.5 117.5 42.5"/><polyline class="cls-2" points="122.5 40.5 122.5 42.5 121.5 42.5"/><polyline class="cls-2" points="94.5 40.5 94.5 42.5 93.5 42.5"/><polyline class="cls-2" points="98.5 40.5 98.5 42.5 97.5 42.5"/><polyline class="cls-2" points="102.5 40.5 102.5 42.5 101.5 42.5"/><polygon class="cls-1" points="108 1 118 26 98 26 108 1"/><line class="cls-7" x1="101" y1="26" x2="108" y2="9"/><path class="cls-1" d="M128,148h3V127c0-19,15-23,15-23s15,4,15,23v21h3l2-23V80H126v45Z"/><line class="cls-3" x1="146" y1="87" x2="146" y2="80"/><line class="cls-3" x1="151" y1="87" x2="151" y2="80"/><line class="cls-3" x1="156" y1="87" x2="156" y2="80"/><line class="cls-3" x1="161" y1="87" x2="161" y2="80"/><line class="cls-3" x1="131" y1="87" x2="131" y2="80"/><line class="cls-3" x1="136" y1="87" x2="136" y2="80"/><line class="cls-3" x1="141" y1="87" x2="141" y2="80"/><line class="cls-4" x1="128.5" y1="91.5" x2="163.5" y2="91.5"/><line class="cls-2" x1="142.5" y1="94.5" x2="142.5" y2="96.5"/><line class="cls-2" x1="138.5" y1="94.5" x2="138.5" y2="96.5"/><line class="cls-2" x1="134.5" y1="94.5" x2="134.5" y2="96.5"/><line class="cls-2" x1="130.5" y1="94.5" x2="130.5" y2="96.5"/><line class="cls-2" x1="146.5" y1="94.5" x2="146.5" y2="96.5"/><line class="cls-2" x1="150.5" y1="94.5" x2="150.5" y2="96.5"/><line class="cls-2" x1="154.5" y1="94.5" x2="154.5" y2="96.5"/><line class="cls-2" x1="158.5" y1="94.5" x2="158.5" y2="96.5"/><line class="cls-2" x1="162.5" y1="94.5" x2="162.5" y2="96.5"/><circle class="cls-2" cx="161" cy="104" r="2.5"/><circle class="cls-2" cx="131" cy="104" r="2.5"/><path class="cls-1" d="M204,88v60h9V125a19.76,19.76,0,0,1,9-17,19.76,19.76,0,0,1,9,17v23h6V125a19.76,19.76,0,0,1,9-17,19.76,19.76,0,0,1,9,17v23h6V125a19.76,19.76,0,0,1,9-17,19.76,19.76,0,0,1,9,17v23h7V88Z"/><line class="cls-2" x1="222.5" y1="98.5" x2="222.5" y2="100.5"/><line class="cls-2" x1="218.5" y1="98.5" x2="218.5" y2="100.5"/><line class="cls-2" x1="214.5" y1="98.5" x2="214.5" y2="100.5"/><line class="cls-2" x1="207.5" y1="98.5" x2="207.5" y2="100.5"/><line class="cls-8" x1="210.5" y1="98.5" x2="210.5" y2="123.5"/><line class="cls-2" x1="226.5" y1="98.5" x2="226.5" y2="100.5"/><line class="cls-2" x1="230.5" y1="98.5" x2="230.5" y2="100.5"/><line class="cls-8" x1="234.5" y1="98.5" x2="234.5" y2="123.5"/><line class="cls-2" x1="246.5" y1="98.5" x2="246.5" y2="100.5"/><line class="cls-2" x1="242.5" y1="98.5" x2="242.5" y2="100.5"/><line class="cls-2" x1="238.5" y1="98.5" x2="238.5" y2="100.5"/><line class="cls-2" x1="250.5" y1="98.5" x2="250.5" y2="100.5"/><line class="cls-2" x1="254.5" y1="98.5" x2="254.5" y2="100.5"/><line class="cls-8" x1="258.5" y1="98.5" x2="258.5" y2="123.5"/><line class="cls-2" x1="270.5" y1="98.5" x2="270.5" y2="100.5"/><line class="cls-2" x1="266.5" y1="98.5" x2="266.5" y2="100.5"/><line class="cls-2" x1="262.5" y1="98.5" x2="262.5" y2="100.5"/><line class="cls-2" x1="274.5" y1="98.5" x2="274.5" y2="100.5"/><line class="cls-2" x1="278.5" y1="98.5" x2="278.5" y2="100.5"/><line class="cls-8" x1="282.5" y1="98.5" x2="282.5" y2="123.5"/><line class="cls-9" x1="206.5" y1="95.5" x2="282.5" y2="95.5"/><line class="cls-3" x1="209" y1="92" x2="209" y2="88"/><line class="cls-3" x1="213" y1="92" x2="213" y2="88"/><line class="cls-3" x1="217" y1="92" x2="217" y2="88"/><line class="cls-3" x1="221" y1="92" x2="221" y2="88"/><line class="cls-3" x1="225" y1="92" x2="225" y2="88"/><line class="cls-3" x1="229" y1="92" x2="229" y2="88"/><line class="cls-3" x1="233" y1="92" x2="233" y2="88"/><line class="cls-3" x1="237" y1="92" x2="237" y2="88"/><line class="cls-3" x1="241" y1="92" x2="241" y2="88"/><line class="cls-3" x1="245" y1="92" x2="245" y2="88"/><line class="cls-3" x1="249" y1="92" x2="249" y2="88"/><line class="cls-3" x1="253" y1="92" x2="253" y2="88"/><line class="cls-3" x1="257" y1="92" x2="257" y2="88"/><line class="cls-3" x1="261" y1="92" x2="261" y2="88"/><line class="cls-3" x1="265" y1="92" x2="265" y2="88"/><line class="cls-3" x1="269" y1="92" x2="269" y2="88"/><line class="cls-3" x1="273" y1="92" x2="273" y2="88"/><line class="cls-3" x1="277" y1="92" x2="277" y2="88"/><line class="cls-3" x1="281" y1="92" x2="281" y2="88"/><path class="cls-3" d="M285,88"/><path class="cls-3" d="M285,148"/><rect class="cls-1" x="286" y="88" width="5" height="60"/><path class="cls-1" d="M6,88v60h7V125a19.76,19.76,0,0,1,9-17,19.76,19.76,0,0,1,9,17v23h6V125a19.76,19.76,0,0,1,9-17,19.76,19.76,0,0,1,9,17v23h6V125a19.76,19.76,0,0,1,9-17,19.76,19.76,0,0,1,9,17v23h9V88Z"/><line class="cls-2" x1="69.5" y1="98.5" x2="69.5" y2="100.5"/><line class="cls-2" x1="73.5" y1="98.5" x2="73.5" y2="100.5"/><line class="cls-2" x1="77.5" y1="98.5" x2="77.5" y2="100.5"/><line class="cls-2" x1="84.5" y1="98.5" x2="84.5" y2="100.5"/><line class="cls-8" x1="81.5" y1="98.5" x2="81.5" y2="123.5"/><line class="cls-2" x1="65.5" y1="98.5" x2="65.5" y2="100.5"/><line class="cls-2" x1="61.5" y1="98.5" x2="61.5" y2="100.5"/><line class="cls-8" x1="57.5" y1="98.5" x2="57.5" y2="123.5"/><line class="cls-2" x1="45.5" y1="98.5" x2="45.5" y2="100.5"/><line class="cls-2" x1="49.5" y1="98.5" x2="49.5" y2="100.5"/><line class="cls-2" x1="53.5" y1="98.5" x2="53.5" y2="100.5"/><line class="cls-2" x1="41.5" y1="98.5" x2="41.5" y2="100.5"/><line class="cls-2" x1="37.5" y1="98.5" x2="37.5" y2="100.5"/><line class="cls-8" x1="33.5" y1="98.5" x2="33.5" y2="123.5"/><line class="cls-2" x1="21.5" y1="98.5" x2="21.5" y2="100.5"/><line class="cls-2" x1="25.5" y1="98.5" x2="25.5" y2="100.5"/><line class="cls-2" x1="29.5" y1="98.5" x2="29.5" y2="100.5"/><line class="cls-2" x1="17.5" y1="98.5" x2="17.5" y2="100.5"/><line class="cls-2" x1="13.5" y1="98.5" x2="13.5" y2="100.5"/><line class="cls-8" x1="9.5" y1="98.5" x2="9.5" y2="123.5"/><line class="cls-10" x1="9.5" y1="95.5" x2="85.5" y2="95.5"/><line class="cls-3" x1="83" y1="92" x2="83" y2="88"/><line class="cls-3" x1="79" y1="92" x2="79" y2="88"/><line class="cls-3" x1="75" y1="92" x2="75" y2="88"/><line class="cls-3" x1="71" y1="92" x2="71" y2="88"/><line class="cls-3" x1="67" y1="92" x2="67" y2="88"/><line class="cls-3" x1="63" y1="92" x2="63" y2="88"/><line class="cls-3" x1="59" y1="92" x2="59" y2="88"/><line class="cls-3" x1="55" y1="92" x2="55" y2="88"/><line class="cls-3" x1="51" y1="92" x2="51" y2="88"/><line class="cls-3" x1="47" y1="92" x2="47" y2="88"/><line class="cls-3" x1="43" y1="92" x2="43" y2="88"/><line class="cls-3" x1="39" y1="92" x2="39" y2="88"/><line class="cls-3" x1="35" y1="92" x2="35" y2="88"/><line class="cls-3" x1="31" y1="92" x2="31" y2="88"/><line class="cls-3" x1="27" y1="92" x2="27" y2="88"/><line class="cls-3" x1="23" y1="92" x2="23" y2="88"/><line class="cls-3" x1="19" y1="92" x2="19" y2="88"/><line class="cls-3" x1="15" y1="92" x2="15" y2="88"/><line class="cls-3" x1="11" y1="92" x2="11" y2="88"/><path class="cls-3" d="M7,88"/><path class="cls-3" d="M7,148"/><rect class="cls-1" x="1" y="88" width="5" height="60" transform="translate(7 236) rotate(-180)"/></g></g></svg>