<svg id="Ebene_2" data-name="Ebene 2" xmlns="http://www.w3.org/2000/svg" xmlns:xlink="http://www.w3.org/1999/xlink" viewBox="0 0 1160 182"><defs><style>.cls-1,.cls-3,.cls-5{fill:none;}.cls-2{clip-path:url(#clip-path);}.cls-3,.cls-5,.cls-6,.cls-8{stroke:#2e9ccc;stroke-width:4px;}.cls-3,.cls-6{stroke-linecap:round;}.cls-3,.cls-5,.cls-6,.cls-7,.cls-8{stroke-linejoin:round;}.cls-4{fill:#2e9ccc;}.cls-6,.cls-7,.cls-8{fill:#fff;}.cls-7{stroke:#fff;stroke-width:12px;}</style><clipPath id="clip-path"><rect class="cls-1" width="1160" height="182"/></clipPath></defs><title>potsdam2</title><g class="cls-2"><polyline class="cls-3" points="29 184 29 149 13 133 414 133"/><polyline class="cls-3" points="299 184 299 149 283 133"/><rect class="cls-3" x="29" y="122" width="385" height="11"/><rect class="cls-3" x="338" y="76" width="38" height="6"/><path class="cls-3" d="M302,109c6-13,20-24,36-27"/><path class="cls-3" d="M412,109c-6-13-20-24-36-27"/><path class="cls-4" d="M70,159.5c0-3.59-3.36-6.5-7.5-6.5s-7.5,2.91-7.5,6.5V184H70Z"/><path class="cls-4" d="M111,159.5c0-3.59-3.36-6.5-7.5-6.5s-7.5,2.91-7.5,6.5V184h15Z"/><path class="cls-4" d="M152,159.5c0-3.59-3.36-6.5-7.5-6.5s-7.5,2.91-7.5,6.5V184h15Z"/><path class="cls-4" d="M193,159.5c0-3.59-3.36-6.5-7.5-6.5s-7.5,2.91-7.5,6.5V184h15Z"/><path class="cls-4" d="M234,159.5c0-3.59-3.36-6.5-7.5-6.5s-7.5,2.91-7.5,6.5V184h15Z"/><path class="cls-4" d="M275,159.5c0-3.59-3.36-6.5-7.5-6.5s-7.5,2.91-7.5,6.5V184h15Z"/><path class="cls-3" d="M365,157.13c0-3.94-3.58-7.13-8-7.13s-8,3.19-8,7.13V184h16Z"/><path class="cls-3" d="M325,157.13a7,7,0,1,0-14,0V184h14Z"/><path class="cls-3" d="M389,157.13a7,7,0,1,1,14,0V184H389Z"/><polyline class="cls-5" points="307.68 100 100 100 52 122"/><circle class="cls-6" cx="83" cy="113" r="6"/><circle class="cls-6" cx="124" cy="113" r="6"/><circle class="cls-6" cx="165" cy="113" r="6"/><circle class="cls-6" cx="206" cy="113" r="6"/><circle class="cls-6" cx="247" cy="113" r="6"/><circle class="cls-6" cx="288" cy="113" r="6"/><circle class="cls-6" cx="336" cy="113" r="6"/><circle class="cls-6" cx="378" cy="113" r="6"/><rect class="cls-7" x="624.96" y="40" width="42.04" height="103"/><rect class="cls-8" x="624.96" y="40" width="42.04" height="103"/><rect class="cls-4" x="636.17" y="50.51" width="5.61" height="16.82"/><rect class="cls-4" x="636.17" y="77.84" width="5.61" height="16.82"/><rect class="cls-4" x="636.17" y="105.16" width="5.61" height="16.82"/><rect class="cls-4" x="650.18" y="50.51" width="5.61" height="16.82" transform="translate(1305.97 117.84) rotate(-180)"/><rect class="cls-4" x="650.18" y="77.84" width="5.61" height="16.82" transform="translate(1305.97 172.49) rotate(-180)"/><rect class="cls-4" x="650.18" y="105.16" width="5.61" height="16.82" transform="translate(1305.97 227.14) rotate(-180)"/><rect class="cls-7" x="455" y="13" width="59" height="171"/><rect class="cls-8" x="455" y="13" width="59" height="171"/><rect class="cls-4" x="471" y="33" width="8" height="24"/><rect class="cls-4" x="471" y="81" width="8" height="24"/><rect class="cls-4" x="471" y="130" width="8" height="24"/><rect class="cls-4" x="490" y="33" width="8" height="24" transform="translate(988 90) rotate(-180)"/><rect class="cls-4" x="490" y="81" width="8" height="24" transform="translate(988 186) rotate(-180)"/><rect class="cls-4" x="490" y="130" width="8" height="24" transform="translate(988 284) rotate(-180)"/><rect class="cls-8" x="775" y="101" width="60" height="83"/><rect class="cls-4" x="791" y="113" width="8" height="24"/><rect class="cls-4" x="791" y="147" width="8" height="24"/><rect class="cls-4" x="811" y="113" width="8" height="24" transform="translate(1630 250) rotate(-180)"/><rect class="cls-4" x="811" y="147" width="8" height="24" transform="translate(1630 318) rotate(-180)"/><rect class="cls-7" x="831" y="37" width="60" height="147"/><rect class="cls-8" x="831" y="37" width="60" height="147"/><rect class="cls-4" x="847" y="52" width="8" height="24"/><rect class="cls-4" x="847" y="91" width="8" height="24"/><rect class="cls-4" x="847" y="130" width="8" height="24"/><rect class="cls-4" x="867" y="52" width="8" height="24" transform="translate(1742 128) rotate(-180)"/><rect class="cls-4" x="867" y="91" width="8" height="24" transform="translate(1742 206) rotate(-180)"/><rect class="cls-4" x="867" y="130" width="8" height="24" transform="translate(1742 284) rotate(-180)"/><rect class="cls-7" x="400" y="69" width="60" height="115"/><rect class="cls-8" x="400" y="69" width="60" height="115"/><rect class="cls-4" x="416" y="84" width="8" height="24"/><rect class="cls-4" x="416" y="119" width="8" height="24"/><rect class="cls-4" x="416" y="153" width="8" height="24"/><rect class="cls-4" x="436" y="84" width="8" height="24" transform="translate(880 192) rotate(-180)"/><rect class="cls-4" x="436" y="119" width="8" height="24" transform="translate(880 262) rotate(-180)"/><rect class="cls-4" x="436" y="153" width="8" height="24" transform="translate(880 330) rotate(-180)"/><path class="cls-8" d="M1082.95,77.23C1082.95,67,1088,57,1088,57a160.08,160.08,0,0,0-38-5c-20,0-52,13-52,13l-10-2s-12.46,17.81-6.23,28.91"/><path class="cls-8" d="M1096.76,103V91L1102,80s-17-4-46-4-62,6-84,22H961v39l-16,4,10,27-11,7s0,9,28,9"/><path class="cls-8" d="M1111,176.33S1126,165,1145,145c-34,1-42-9-22-29-62-44-151,7-151,7v61h139Z"/><path class="cls-8" d="M1111,184V150h-19c-8,0-10-16-10-27,0,0-19-9-68.33,0-29.45,5.37-41.67,0-41.67,0v61Z"/><path class="cls-7" d="M1035,184V86h-13l-10-32-9,32H990v27H977v18h-9V113H955v18h-9V113H933v18h-9V113H911V86H898L888,54l-9,32H866v98h45c0-21.82,23-39,39.5-39S990,162.18,990,184Z"/><polygon class="cls-6" points="990 86 990 184 1035 184 1035 86 1022 86 1012.5 54 1003 86 990 86"/><path class="cls-4" d="M1006,124.5a6.5,6.5,0,0,1,13,0V151h-13Z"/><polygon class="cls-6" points="911 86 911 184 866 184 866 86 879 86 888.5 54 898 86 911 86"/><path class="cls-4" d="M895,124.5a6.5,6.5,0,0,0-13,0V151h13Z"/><path class="cls-8" d="M911,184c0-21.82,23-39,39.5-39S990,162.18,990,184V113H977v18h-9V113H955v18h-9V113H933v18h-9V113H911Z"/><path class="cls-7" d="M788,114c0-20.73-16.4-38.25-38.93-44H750V59H716V70h.93C694.4,75.75,678,93.27,678,114H664v70H802V114Z"/><rect class="cls-5" x="664" y="114" width="138" height="70"/><path class="cls-5" d="M788,114c0-25.41-24.62-46-55-46s-55,20.59-55,46"/><path class="cls-4" d="M744,140.64A10.56,10.56,0,0,0,732.56,130,10.75,10.75,0,0,0,723,140.87V184h21Z"/><path class="cls-4" d="M784,140.64A10.56,10.56,0,0,0,772.56,130,10.75,10.75,0,0,0,763,140.87V184h21Z"/><path class="cls-4" d="M683,140.64A10.56,10.56,0,0,1,694.44,130,10.75,10.75,0,0,1,704,140.87V184H683Z"/><polyline class="cls-5" points="716 70 716 59 750 59 750 70"/><path class="cls-7" d="M640,94V74H490V94h-5v9h5v81h20V158.27c0-5.24,5.59-9.34,11.85-8A8.6,8.6,0,0,1,529,158.4V184h21V131.19c0-6,4.57-11.41,11.28-12.81C571.18,116.33,580,122.77,580,131v53h21V158.4a8.6,8.6,0,0,1,7.15-8.15c6.27-1.31,11.85,2.79,11.85,8V184h20V103h5V94Z"/><circle class="cls-7" cx="500" cy="63" r="10"/><circle class="cls-7" cx="538" cy="63" r="10"/><circle class="cls-7" cx="630" cy="63" r="10"/><circle class="cls-7" cx="592" cy="63" r="10"/><path class="cls-5" d="M490,184V103h-5V94h5V74H640V94h5v9h-5v81H620V158.27c0-5.24-5.59-9.34-11.85-8A8.6,8.6,0,0,0,601,158.4V184H580V131c0-8.23-8.82-14.67-18.72-12.61-6.72,1.4-11.28,6.82-11.28,12.81V184H529V158.4a8.6,8.6,0,0,0-7.15-8.15c-6.27-1.31-11.85,2.79-11.85,8V184Z"/><rect class="cls-5" x="485" y="94" width="160" height="9"/><circle class="cls-5" cx="500" cy="63" r="10"/><circle class="cls-5" cx="538" cy="63" r="10"/><circle class="cls-5" cx="630" cy="63" r="10"/><circle class="cls-5" cx="592" cy="63" r="10"/><polygon class="cls-7" points="632 184 676 184 676 149 654 127 632 149 632 184"/><polygon class="cls-5" points="632 184 676 184 676 149 654 127 632 149 632 184"/><rect class="cls-4" x="640" y="154" width="9" height="21"/><rect class="cls-4" x="659" y="154" width="9" height="21" transform="translate(1327 329) rotate(-180)"/></g></svg>