<svg xmlns="http://www.w3.org/2000/svg" viewBox="0 0 256 1024"><defs><style>.cls-1,.cls-10,.cls-11,.cls-12,.cls-13,.cls-14,.cls-15,.cls-16,.cls-2,.cls-3,.cls-4,.cls-5,.cls-6,.cls-7,.cls-8,.cls-9{fill:none;}.cls-1,.cls-10,.cls-11,.cls-12,.cls-13,.cls-14,.cls-15,.cls-2,.cls-3,.cls-4,.cls-5,.cls-6,.cls-7,.cls-8,.cls-9{stroke:#2e9ccc;stroke-linecap:round;stroke-linejoin:round;stroke-width:2px;}.cls-2{stroke-dasharray:78.36 78.36 48.97 9.79;}.cls-3{stroke-dasharray:313.44 9.79 78.36 78.36 48.97 9.79;}.cls-4{stroke-dasharray:51.57 6.45 206.27 32.23;}.cls-5{stroke-dasharray:6.45 206.27 51.57 6.45 206.27 32.23;}.cls-6{stroke-dasharray:56.63 56.63 226.54 7.08;}.cls-7{stroke-dasharray:113.27 42.48 56.63 56.63 226.54 7.08;}.cls-8{stroke-dasharray:7.18 35.89 139.96 7.18;}.cls-9{stroke-dasharray:7.18 57.42 7.18 35.89 139.96 7.18;}.cls-10{stroke-dasharray:7.37 58.95 184.21 36.84;}.cls-11{stroke-dasharray:36.84 14.74 7.37 58.95 184.21 36.84;}.cls-12{stroke-dasharray:5.42 173.39 5.42 100.24;}.cls-13{stroke-dasharray:173.39 10.84 5.42 173.39 5.42 100.24;}.cls-14{stroke-dasharray:17.3 43.26 8.65 160.05;}.cls-15{stroke-dasharray:69.21 43.26 17.3 43.26 8.65 160.05;}</style></defs><title>rain</title><g id="Ebene_2" data-name="Ebene 2"><g id="Ebene_1-2" data-name="Ebene 1"><line class="cls-1" x1="2" y1="2" x2="2" y2="130"/><line class="cls-2" x1="2" y1="139.79" x2="2" y2="350.38"/><line class="cls-3" x1="2" y1="355.28" x2="2" y2="889.1"/><line class="cls-1" x1="2" y1="894" x2="2" y2="1022"/><line class="cls-1" x1="42" y1="2" x2="42" y2="6"/><line class="cls-4" x1="42" y1="212.27" x2="42" y2="492.66"/><line class="cls-5" x1="42" y1="508.78" x2="42" y2="1001.89"/><line class="cls-1" x1="42" y1="1018" x2="42" y2="1022"/><line class="cls-1" x1="82" y1="2" x2="82" y2="66"/><line class="cls-6" x1="82" y1="108.48" x2="82" y2="451.83"/><line class="cls-7" x1="82" y1="455.37" x2="82" y2="954.46"/><line class="cls-1" x1="82" y1="958" x2="82" y2="1022"/><line class="cls-1" x1="122" y1="2" x2="122" y2="6"/><line class="cls-8" x1="122" y1="63.42" x2="122" y2="250.03"/><line class="cls-9" x1="122" y1="253.62" x2="122" y2="1014.41"/><line class="cls-1" x1="122" y1="1018" x2="122" y2="1022"/><line class="cls-1" x1="162" y1="2" x2="162" y2="22"/><line class="cls-10" x1="162" y1="36.74" x2="162" y2="305.68"/><line class="cls-11" x1="162" y1="324.11" x2="162" y2="983.58"/><line class="cls-1" x1="162" y1="1002" x2="162" y2="1022"/><line class="cls-1" x1="202" y1="2" x2="202" y2="130"/><line class="cls-12" x1="202" y1="140.84" x2="202" y2="375.18"/><line class="cls-13" x1="202" y1="425.3" x2="202" y2="843.88"/><line class="cls-1" x1="202" y1="894" x2="202" y2="1022"/><line class="cls-1" x1="242" y1="2" x2="242" y2="34"/><line class="cls-14" x1="242" y1="77.26" x2="242" y2="226.5"/><line class="cls-15" x1="242" y1="306.52" x2="242" y2="909.97"/><line class="cls-1" x1="242" y1="990" x2="242" y2="1022"/><rect class="cls-16" width="256" height="1024"/></g></g></svg>